<svg width="38" height="429" viewBox="0 0 38 429" fill="none" xmlns="http://www.w3.org/2000/svg">
<circle cx="19" cy="19.5" r="19" fill="#E8F0F5"/>
<g clip-path="url(#clip0_1_1332)">
<mask id="mask0_1_1332" style="mask-type:luminance" maskUnits="userSpaceOnUse" x="9" y="9" width="20" height="21">
<path d="M29 9.5H9V29.5H29V9.5Z" fill="white"/>
</mask>
<g mask="url(#mask0_1_1332)">
<path d="M28.2675 17.0553L21.9467 10.7336C21.1644 9.95364 20.1047 9.51562 19 9.51562C17.8953 9.51562 16.8356 9.95364 16.0533 10.7336L9.73251 17.0553C9.49953 17.2868 9.31482 17.5622 9.18908 17.8656C9.06334 18.169 8.99907 18.4944 9.00001 18.8228V27.0036C9.00001 27.6667 9.2634 28.3026 9.73224 28.7714C10.2011 29.2403 10.837 29.5036 11.5 29.5036H26.5C27.1631 29.5036 27.7989 29.2403 28.2678 28.7714C28.7366 28.3026 29 27.6667 29 27.0036V18.8228C29.0009 18.4944 28.9367 18.169 28.8109 17.8656C28.6852 17.5622 28.5005 17.2868 28.2675 17.0553ZM21.5 27.837H16.5V24.5586C16.5 23.8956 16.7634 23.2597 17.2322 22.7909C17.7011 22.322 18.337 22.0586 19 22.0586C19.6631 22.0586 20.2989 22.322 20.7678 22.7909C21.2366 23.2597 21.5 23.8956 21.5 24.5586V27.837ZM27.3333 27.0036C27.3333 27.2247 27.2455 27.4366 27.0893 27.5929C26.933 27.7492 26.721 27.837 26.5 27.837H23.1667V24.5586C23.1667 23.4536 22.7277 22.3938 21.9463 21.6124C21.1649 20.831 20.1051 20.392 19 20.392C17.8949 20.392 16.8351 20.831 16.0537 21.6124C15.2723 22.3938 14.8333 23.4536 14.8333 24.5586V27.837H11.5C11.279 27.837 11.067 27.7492 10.9108 27.5929C10.7545 27.4366 10.6667 27.2247 10.6667 27.0036V18.8228C10.6674 18.602 10.7552 18.3903 10.9108 18.2337L17.2317 11.9145C17.7014 11.4469 18.3372 11.1844 19 11.1844C19.6628 11.1844 20.2986 11.4469 20.7683 11.9145L27.0892 18.2361C27.2442 18.3922 27.3319 18.6028 27.3333 18.8228V27.0036Z" fill="#868686"/>
</g>
</g>
<circle cx="19" cy="84.5" r="19" fill="#E8F0F5"/>
<path d="M15 75.25H12C10.7574 75.25 9.75 76.2574 9.75 77.5V80.5C9.75 81.7426 10.7574 82.75 12 82.75H15C16.2426 82.75 17.25 81.7426 17.25 80.5V77.5C17.25 76.2574 16.2426 75.25 15 75.25Z" stroke="#868686" stroke-width="1.5"/>
<path d="M26 75.25H23C21.7574 75.25 20.75 76.2574 20.75 77.5V80.5C20.75 81.7426 21.7574 82.75 23 82.75H26C27.2426 82.75 28.25 81.7426 28.25 80.5V77.5C28.25 76.2574 27.2426 75.25 26 75.25Z" stroke="#868686" stroke-width="1.5"/>
<path d="M26 86.25H23C21.7574 86.25 20.75 87.2574 20.75 88.5V91.5C20.75 92.7426 21.7574 93.75 23 93.75H26C27.2426 93.75 28.25 92.7426 28.25 91.5V88.5C28.25 87.2574 27.2426 86.25 26 86.25Z" stroke="#868686" stroke-width="1.5"/>
<path d="M15 86.25H12C10.7574 86.25 9.75 87.2574 9.75 88.5V91.5C9.75 92.7426 10.7574 93.75 12 93.75H15C16.2426 93.75 17.25 92.7426 17.25 91.5V88.5C17.25 87.2574 16.2426 86.25 15 86.25Z" stroke="#868686" stroke-width="1.5"/>
<circle cx="19" cy="149.5" r="19" fill="#E8F0F5"/>
<g clip-path="url(#clip1_1_1332)">
<mask id="mask1_1_1332" style="mask-type:luminance" maskUnits="userSpaceOnUse" x="9" y="139" width="20" height="21">
<path d="M29 139.5H9V159.5H29V139.5Z" fill="white"/>
</mask>
<g mask="url(#mask1_1_1332)">
<path d="M23.9945 141.407C22.9774 140.498 21.7317 139.884 20.3915 139.631C19.0513 139.377 17.6673 139.494 16.3886 139.968C15.1098 140.443 13.9847 141.257 13.1342 142.324C12.2838 143.39 11.7402 144.668 11.562 146.02C11.402 147.206 11.53 148.413 11.9351 149.539C12.3403 150.664 13.0107 151.676 13.8895 152.488C14.433 152.964 14.8716 153.549 15.1774 154.204C15.4833 154.859 15.6497 155.57 15.6662 156.293V156.427C15.6671 157.242 15.9913 158.024 16.5678 158.6C17.1443 159.177 17.9259 159.501 18.7412 159.502H19.2579C20.0731 159.501 20.8548 159.177 21.4312 158.6C22.0077 158.024 22.332 157.242 22.3329 156.427V155.969C22.3453 155.331 22.4957 154.702 22.7735 154.127C23.0514 153.551 23.4503 153.043 23.9429 152.636C24.7417 151.936 25.3827 151.075 25.8235 150.109C26.2643 149.143 26.4948 148.094 26.4997 147.032C26.5045 145.97 26.2837 144.92 25.8519 143.95C25.42 142.979 24.7869 142.112 23.9945 141.405V141.407ZM19.2579 157.835H18.7412C18.3678 157.835 18.0099 157.686 17.7459 157.422C17.4818 157.158 17.3333 156.8 17.3329 156.427C17.3329 156.427 17.327 156.21 17.3262 156.169H20.6662V156.427C20.6658 156.8 20.5172 157.158 20.2532 157.422C19.9892 157.686 19.6312 157.835 19.2579 157.835ZM22.8412 151.384C21.8924 152.207 21.2072 153.292 20.8712 154.502H19.8329V148.515C20.3186 148.344 20.7395 148.026 21.0378 147.606C21.3361 147.186 21.4974 146.684 21.4995 146.169C21.4995 145.948 21.4117 145.736 21.2555 145.579C21.0992 145.423 20.8872 145.335 20.6662 145.335C20.4452 145.335 20.2332 145.423 20.0769 145.579C19.9207 145.736 19.8329 145.948 19.8329 146.169C19.8329 146.39 19.7451 146.602 19.5888 146.758C19.4325 146.914 19.2205 147.002 18.9995 147.002C18.7785 147.002 18.5666 146.914 18.4103 146.758C18.254 146.602 18.1662 146.39 18.1662 146.169C18.1662 145.948 18.0784 145.736 17.9221 145.579C17.7658 145.423 17.5539 145.335 17.3329 145.335C17.1118 145.335 16.8999 145.423 16.7436 145.579C16.5873 145.736 16.4995 145.948 16.4995 146.169C16.5017 146.684 16.6629 147.186 16.9613 147.606C17.2596 148.026 17.6804 148.344 18.1662 148.515V154.502H17.0645C16.6887 153.26 15.9838 152.142 15.0245 151.268C14.2103 150.509 13.6301 149.533 13.3524 148.456C13.0747 147.378 13.1111 146.243 13.4572 145.186C13.8034 144.128 14.4448 143.191 15.3059 142.486C16.167 141.781 17.2118 141.337 18.317 141.207C18.5461 141.181 18.7765 141.169 19.007 141.169C20.4383 141.164 21.8201 141.692 22.8837 142.65C23.5001 143.2 23.9926 143.874 24.3287 144.629C24.6647 145.383 24.8365 146.201 24.8327 147.026C24.8289 147.852 24.6496 148.668 24.3067 149.419C23.9638 150.171 23.4651 150.84 22.8437 151.384H22.8412Z" fill="#868686"/>
</g>
</g>
<circle cx="19" cy="214.5" r="19" fill="#E8F0F5"/>
<path fill-rule="evenodd" clip-rule="evenodd" d="M12.5981 207.335C11.6401 208.293 11.6401 209.835 11.6401 212.919V221.589C11.6401 222.836 12.9798 223.624 14.0699 223.018L18.2057 220.721C18.6997 220.446 19.3003 220.446 19.7943 220.721L23.9301 223.018C25.0203 223.624 26.3599 222.836 26.3599 221.589V212.919C26.3599 209.835 26.3599 208.293 25.4018 207.335C24.4438 206.377 22.9017 206.377 19.8178 206.377H18.1822C15.0982 206.377 13.5562 206.377 12.5981 207.335Z" stroke="#868686" stroke-width="1.75"/>
<circle cx="19" cy="279.5" r="19" fill="#E8F0F5"/>
<g clip-path="url(#clip2_1_1332)">
<mask id="mask2_1_1332" style="mask-type:luminance" maskUnits="userSpaceOnUse" x="9" y="269" width="20" height="21">
<path d="M29 269.5H9V289.5H29V269.5Z" fill="white"/>
</mask>
<g mask="url(#mask2_1_1332)">
<path d="M22.3333 275.333L22.3142 274.353C22.8734 274.161 23.3465 273.778 23.6491 273.27C23.9517 272.762 24.0641 272.164 23.9663 271.581C23.8685 270.998 23.5668 270.469 23.1151 270.088C22.6634 269.707 22.091 269.498 21.5 269.5H16.5C15.911 269.499 15.3406 269.706 14.8898 270.085C14.439 270.465 14.137 270.991 14.0372 271.572C13.9374 272.152 14.0462 272.749 14.3445 273.257C14.6427 273.765 15.1111 274.151 15.6667 274.347V275.333C14.562 275.335 13.503 275.774 12.7218 276.555C11.9407 277.336 11.5013 278.395 11.5 279.5V285.333C11.5013 286.438 11.9407 287.497 12.7218 288.278C13.503 289.059 14.562 289.499 15.6667 289.5H22.3333C23.438 289.499 24.497 289.059 25.2782 288.278C26.0593 287.497 26.4987 286.438 26.5 285.333V279.5C26.4987 278.395 26.0593 277.336 25.2782 276.555C24.497 275.774 23.438 275.335 22.3333 275.333ZM16.5 271.167H21.5C21.721 271.167 21.933 271.254 22.0893 271.411C22.2455 271.567 22.3333 271.779 22.3333 272C22.3333 272.221 22.2455 272.433 22.0893 272.589C21.933 272.746 21.721 272.833 21.5 272.833H16.5C16.279 272.833 16.067 272.746 15.9107 272.589C15.7545 272.433 15.6667 272.221 15.6667 272C15.6667 271.779 15.7545 271.567 15.9107 271.411C16.067 271.254 16.279 271.167 16.5 271.167ZM24.8333 285.333C24.8333 285.996 24.5699 286.632 24.1011 287.101C23.6323 287.57 22.9964 287.833 22.3333 287.833H15.6667C15.0036 287.833 14.3677 287.57 13.8989 287.101C13.4301 286.632 13.1667 285.996 13.1667 285.333V279.5C13.1667 278.837 13.4301 278.201 13.8989 277.732C14.3677 277.263 15.0036 277 15.6667 277H16.5C16.721 277 16.933 276.912 17.0893 276.756C17.2455 276.6 17.3333 276.388 17.3333 276.167V274.5H20.6442L20.6667 276.178C20.6697 276.397 20.7589 276.606 20.9148 276.76C21.0708 276.914 21.281 277 21.5 277H22.3333C22.9964 277 23.6323 277.263 24.1011 277.732C24.5699 278.201 24.8333 278.837 24.8333 279.5V285.333ZM22.3333 282C22.3333 282.221 22.2455 282.433 22.0893 282.589C21.933 282.746 21.721 282.833 21.5 282.833H19.8333V284.5C19.8333 284.721 19.7455 284.933 19.5893 285.089C19.433 285.246 19.221 285.333 19 285.333C18.779 285.333 18.567 285.246 18.4107 285.089C18.2545 284.933 18.1667 284.721 18.1667 284.5V282.833H16.5C16.279 282.833 16.067 282.746 15.9107 282.589C15.7545 282.433 15.6667 282.221 15.6667 282C15.6667 281.779 15.7545 281.567 15.9107 281.411C16.067 281.255 16.279 281.167 16.5 281.167H18.1667V279.5C18.1667 279.279 18.2545 279.067 18.4107 278.911C18.567 278.754 18.779 278.667 19 278.667C19.221 278.667 19.433 278.754 19.5893 278.911C19.7455 279.067 19.8333 279.279 19.8333 279.5V281.167H21.5C21.721 281.167 21.933 281.255 22.0893 281.411C22.2455 281.567 22.3333 281.779 22.3333 282Z" fill="#868686"/>
</g>
</g>
<circle cx="19" cy="344.5" r="19" fill="#E8F0F5"/>
<g clip-path="url(#clip3_1_1332)">
<mask id="mask3_1_1332" style="mask-type:luminance" maskUnits="userSpaceOnUse" x="9" y="334" width="20" height="21">
<path d="M29 334.5H9V354.5H29V334.5Z" fill="white"/>
</mask>
<g mask="url(#mask3_1_1332)">
<path d="M29 347.834V352C29 352.664 28.7366 353.299 28.2678 353.768C27.7989 354.237 27.163 354.5 26.5 354.5H22.3333C21.1642 354.499 20.016 354.191 19.0039 353.606C17.9917 353.021 17.1512 352.18 16.5667 351.167C17.1949 351.163 17.821 351.093 18.435 350.961C18.9026 351.545 19.4958 352.017 20.1707 352.341C20.8455 352.666 21.5846 352.834 22.3333 352.834H26.5C26.721 352.834 26.933 352.746 27.0893 352.59C27.2455 352.434 27.3333 352.222 27.3333 352V347.834C27.3331 347.085 27.1643 346.346 26.8395 345.671C26.5146 344.996 26.042 344.403 25.4567 343.936C25.5907 343.322 25.6611 342.696 25.6667 342.067C26.6791 342.652 27.5201 343.492 28.1051 344.504C28.6902 345.517 28.9988 346.665 29 347.834ZM23.9808 342.543C24.0588 341.469 23.9047 340.392 23.529 339.383C23.1534 338.374 22.565 337.458 21.8038 336.697C21.0426 335.936 20.1265 335.347 19.1178 334.971C18.109 334.596 17.0311 334.442 15.9575 334.52C14.0549 334.737 12.2974 335.642 11.016 337.065C9.73452 338.488 9.01752 340.331 9 342.246V346.446C9 348.556 10.2558 349.5 11.5 349.5H16.25C18.1657 349.484 20.0092 348.767 21.4332 347.486C22.8571 346.204 23.7633 344.446 23.9808 342.543ZM20.625 337.876C21.2166 338.469 21.674 339.182 21.9661 339.967C22.2582 340.752 22.3784 341.591 22.3183 342.426C22.1405 343.913 21.4254 345.283 20.3078 346.279C19.1901 347.275 17.747 347.828 16.25 347.834H11.5C10.7267 347.834 10.6667 346.771 10.6667 346.446V342.246C10.6736 340.749 11.2272 339.307 12.2233 338.19C13.2193 337.074 14.5892 336.359 16.075 336.182C16.2133 336.172 16.3517 336.167 16.49 336.167C17.2577 336.166 18.0181 336.317 18.7276 336.61C19.4371 336.904 20.0818 337.334 20.625 337.876Z" fill="#868686"/>
</g>
</g>
<circle cx="19" cy="409.5" r="19" fill="#E8F0F5"/>
<g clip-path="url(#clip4_1_1332)">
<mask id="mask4_1_1332" style="mask-type:luminance" maskUnits="userSpaceOnUse" x="9" y="399" width="20" height="21">
<path d="M29 399.5H9V419.5H29V399.5Z" fill="white"/>
</mask>
<g mask="url(#mask4_1_1332)">
<path d="M27.5 401.305C27.0315 400.913 26.4826 400.629 25.8921 400.474C25.3016 400.318 24.684 400.294 24.0833 400.404L20.8983 400.982C20.163 401.117 19.4944 401.496 19 402.056C18.5043 401.495 17.8338 401.116 17.0967 400.982L13.9167 400.404C13.316 400.294 12.6984 400.318 12.1078 400.473C11.5172 400.628 10.9679 400.911 10.4988 401.302C10.0297 401.693 9.65232 402.182 9.39332 402.735C9.13431 403.288 9.00004 403.892 9 404.502V413.497C9.00005 414.472 9.34248 415.417 9.96761 416.166C10.5927 416.915 11.4609 417.421 12.4208 417.596L17.6592 418.548C18.5458 418.709 19.4542 418.709 20.3408 418.548L25.5833 417.596C26.5425 417.42 27.4097 416.914 28.034 416.165C28.6583 415.416 29.0001 414.472 29 413.497V404.502C29.0004 403.892 28.8662 403.289 28.6069 402.736C28.3476 402.183 27.9697 401.695 27.5 401.305ZM18.1667 416.942C18.0967 416.932 18.0267 416.921 17.9567 416.908L12.7192 415.956C12.1431 415.852 11.6222 415.548 11.2471 415.099C10.872 414.649 10.6666 414.082 10.6667 413.497V404.502C10.6667 403.839 10.9301 403.203 11.3989 402.735C11.8677 402.266 12.5036 402.002 13.1667 402.002C13.3176 402.003 13.4682 402.016 13.6167 402.043L16.8 402.626C17.183 402.697 17.5294 402.899 17.779 403.197C18.0287 403.496 18.1658 403.873 18.1667 404.262V416.942ZM27.3333 413.497C27.3334 414.082 27.128 414.649 26.7529 415.099C26.3778 415.548 25.8569 415.852 25.2808 415.956L20.0433 416.908C19.9733 416.921 19.9033 416.932 19.8333 416.942V404.262C19.8333 403.872 19.9702 403.494 20.2203 403.194C20.4703 402.895 20.8176 402.692 21.2017 402.622L24.3858 402.039C24.7464 401.973 25.117 401.988 25.4714 402.081C25.8258 402.175 26.1553 402.345 26.4365 402.58C26.7178 402.815 26.9439 403.109 27.0988 403.442C27.2538 403.774 27.3339 404.136 27.3333 404.502V413.497Z" fill="#868686"/>
</g>
</g>
<defs>
<clipPath id="clip0_1_1332">
<rect width="20" height="20" fill="white" transform="translate(9 9.5)"/>
</clipPath>
<clipPath id="clip1_1_1332">
<rect width="20" height="20" fill="white" transform="translate(9 139.5)"/>
</clipPath>
<clipPath id="clip2_1_1332">
<rect width="20" height="20" fill="white" transform="translate(9 269.5)"/>
</clipPath>
<clipPath id="clip3_1_1332">
<rect width="20" height="20" fill="white" transform="translate(9 334.5)"/>
</clipPath>
<clipPath id="clip4_1_1332">
<rect width="20" height="20" fill="white" transform="translate(9 399.5)"/>
</clipPath>
</defs>
</svg>
