<svg width="371" height="52" viewBox="0 0 371 52" fill="none" xmlns="http://www.w3.org/2000/svg">
<rect x="0.25" y="0.25" width="370.5" height="51.5" rx="9.75" fill="white"/>
<rect x="0.25" y="0.25" width="370.5" height="51.5" rx="9.75" stroke="#E2E2E2" stroke-width="0.5"/>
<path d="M23.7727 22.7727C23.7045 22.197 23.428 21.75 22.9432 21.4318C22.4583 21.1136 21.8636 20.9545 21.1591 20.9545C20.6439 20.9545 20.1932 21.0379 19.8068 21.2045C19.4242 21.3712 19.125 21.6004 18.9091 21.892C18.697 22.1837 18.5909 22.5152 18.5909 22.8864C18.5909 23.197 18.6648 23.464 18.8125 23.6875C18.964 23.9072 19.1572 24.0909 19.392 24.2386C19.6269 24.3826 19.8731 24.5019 20.1307 24.5966C20.3883 24.6875 20.625 24.7614 20.8409 24.8182L22.0227 25.1364C22.3258 25.2159 22.6629 25.3258 23.0341 25.4659C23.4091 25.6061 23.767 25.7973 24.108 26.0398C24.4527 26.2784 24.7367 26.5852 24.9602 26.9602C25.1837 27.3352 25.2955 27.7955 25.2955 28.3409C25.2955 28.9697 25.1307 29.5379 24.8011 30.0455C24.4754 30.553 23.9981 30.9564 23.3693 31.2557C22.7443 31.5549 21.9848 31.7045 21.0909 31.7045C20.2576 31.7045 19.536 31.5701 18.9261 31.3011C18.3201 31.0322 17.8428 30.6572 17.4943 30.1761C17.1496 29.6951 16.9545 29.1364 16.9091 28.5H18.3636C18.4015 28.9394 18.5492 29.303 18.8068 29.5909C19.0682 29.875 19.3977 30.0871 19.7955 30.2273C20.197 30.3636 20.6288 30.4318 21.0909 30.4318C21.6288 30.4318 22.1117 30.3447 22.5398 30.1705C22.9678 29.9924 23.3068 29.7462 23.5568 29.4318C23.8068 29.1136 23.9318 28.7424 23.9318 28.3182C23.9318 27.9318 23.8239 27.6174 23.608 27.375C23.392 27.1326 23.108 26.9356 22.7557 26.7841C22.4034 26.6326 22.0227 26.5 21.6136 26.3864L20.1818 25.9773C19.2727 25.7159 18.553 25.3428 18.0227 24.858C17.4924 24.3731 17.2273 23.7386 17.2273 22.9545C17.2273 22.303 17.4034 21.7348 17.7557 21.25C18.1117 20.7614 18.589 20.3826 19.1875 20.1136C19.7898 19.8409 20.4621 19.7045 21.2045 19.7045C21.9545 19.7045 22.6212 19.839 23.2045 20.108C23.7879 20.3731 24.25 20.7367 24.5909 21.1989C24.9356 21.661 25.1174 22.1856 25.1364 22.7727H23.7727ZM31.0895 31.6818C30.2486 31.6818 29.5232 31.4962 28.9134 31.125C28.3073 30.75 27.8395 30.2273 27.5099 29.5568C27.1842 28.8826 27.0213 28.0985 27.0213 27.2045C27.0213 26.3106 27.1842 25.5227 27.5099 24.8409C27.8395 24.1553 28.2978 23.6212 28.8849 23.2386C29.4759 22.8523 30.1652 22.6591 30.9531 22.6591C31.4077 22.6591 31.8565 22.7348 32.2997 22.8864C32.7429 23.0379 33.1463 23.2841 33.5099 23.625C33.8736 23.9621 34.1634 24.4091 34.3793 24.9659C34.5952 25.5227 34.7031 26.2083 34.7031 27.0227V27.5909H27.9759V26.4318H33.3395C33.3395 25.9394 33.241 25.5 33.044 25.1136C32.8509 24.7273 32.5743 24.4223 32.2145 24.1989C31.8584 23.9754 31.438 23.8636 30.9531 23.8636C30.419 23.8636 29.9569 23.9962 29.5668 24.2614C29.1804 24.5227 28.883 24.8636 28.6747 25.2841C28.4664 25.7045 28.3622 26.1553 28.3622 26.6364V27.4091C28.3622 28.0682 28.4759 28.6269 28.7031 29.0852C28.9342 29.5398 29.2543 29.8864 29.6634 30.125C30.0724 30.3598 30.5478 30.4773 31.0895 30.4773C31.4418 30.4773 31.7599 30.428 32.044 30.3295C32.3319 30.2273 32.58 30.0758 32.7884 29.875C32.9967 29.6705 33.1577 29.4167 33.2713 29.1136L34.5668 29.4773C34.4304 29.9167 34.2012 30.303 33.8793 30.6364C33.5573 30.9659 33.1596 31.2235 32.6861 31.4091C32.2126 31.5909 31.6804 31.6818 31.0895 31.6818ZM39.3111 31.7045C38.758 31.7045 38.2562 31.6004 37.8054 31.392C37.3546 31.1799 36.9967 30.875 36.7315 30.4773C36.4664 30.0758 36.3338 29.5909 36.3338 29.0227C36.3338 28.5227 36.4323 28.1174 36.6293 27.8068C36.8262 27.4924 37.0895 27.2462 37.419 27.0682C37.7486 26.8902 38.1122 26.7576 38.5099 26.6705C38.9115 26.5795 39.3149 26.5076 39.7202 26.4545C40.2505 26.3864 40.6804 26.3352 41.0099 26.3011C41.3433 26.2633 41.5857 26.2008 41.7372 26.1136C41.8925 26.0265 41.9702 25.875 41.9702 25.6591V25.6136C41.9702 25.053 41.8168 24.6174 41.5099 24.3068C41.2069 23.9962 40.7467 23.8409 40.1293 23.8409C39.4891 23.8409 38.9872 23.9811 38.6236 24.2614C38.2599 24.5417 38.0043 24.8409 37.8565 25.1591L36.5838 24.7045C36.8111 24.1742 37.1141 23.7614 37.4929 23.4659C37.8755 23.1667 38.2921 22.9583 38.7429 22.8409C39.1974 22.7197 39.6444 22.6591 40.0838 22.6591C40.3641 22.6591 40.6861 22.6932 41.0497 22.7614C41.4171 22.8258 41.7713 22.9602 42.1122 23.1648C42.4569 23.3693 42.7429 23.678 42.9702 24.0909C43.1974 24.5038 43.3111 25.0568 43.3111 25.75V31.5H41.9702V30.3182H41.902C41.8111 30.5076 41.6596 30.7102 41.4474 30.9261C41.2353 31.142 40.9531 31.3258 40.6009 31.4773C40.2486 31.6288 39.8187 31.7045 39.3111 31.7045ZM39.5156 30.5C40.0459 30.5 40.4929 30.3958 40.8565 30.1875C41.224 29.9792 41.5005 29.7102 41.6861 29.3807C41.8755 29.0511 41.9702 28.7045 41.9702 28.3409V27.1136C41.9134 27.1818 41.7884 27.2443 41.5952 27.3011C41.4058 27.3542 41.1861 27.4015 40.9361 27.4432C40.6899 27.4811 40.4493 27.5152 40.2145 27.5455C39.9834 27.572 39.7959 27.5947 39.652 27.6136C39.3035 27.6591 38.9777 27.733 38.6747 27.8352C38.3755 27.9337 38.133 28.0833 37.9474 28.2841C37.7656 28.4811 37.6747 28.75 37.6747 29.0909C37.6747 29.5568 37.8471 29.9091 38.1918 30.1477C38.5402 30.3826 38.9815 30.5 39.5156 30.5ZM45.7585 31.5V22.7727H47.054V24.0909H47.1449C47.304 23.6591 47.5919 23.3087 48.0085 23.0398C48.4252 22.7708 48.8949 22.6364 49.4176 22.6364C49.5161 22.6364 49.6392 22.6383 49.7869 22.642C49.9347 22.6458 50.0464 22.6515 50.1222 22.6591V24.0227C50.0767 24.0114 49.9725 23.9943 49.8097 23.9716C49.6506 23.9451 49.482 23.9318 49.304 23.9318C48.8797 23.9318 48.5009 24.0208 48.1676 24.1989C47.8381 24.3731 47.5767 24.6155 47.3835 24.9261C47.1941 25.233 47.0994 25.5833 47.0994 25.9773V31.5H45.7585ZM54.9915 31.6818C54.1733 31.6818 53.4688 31.4886 52.8778 31.1023C52.2869 30.7159 51.8324 30.1837 51.5142 29.5057C51.196 28.8277 51.0369 28.053 51.0369 27.1818C51.0369 26.2955 51.1998 25.5133 51.5256 24.8352C51.8551 24.1534 52.3134 23.6212 52.9006 23.2386C53.4915 22.8523 54.1809 22.6591 54.9688 22.6591C55.5824 22.6591 56.1354 22.7727 56.6278 23C57.1203 23.2273 57.5237 23.5455 57.8381 23.9545C58.1525 24.3636 58.3475 24.8409 58.4233 25.3864H57.0824C56.9801 24.9886 56.7528 24.6364 56.4006 24.3295C56.0521 24.0189 55.5824 23.8636 54.9915 23.8636C54.4688 23.8636 54.0104 24 53.6165 24.2727C53.2263 24.5417 52.9214 24.9223 52.7017 25.4148C52.4858 25.9034 52.3778 26.4773 52.3778 27.1364C52.3778 27.8106 52.4839 28.3977 52.696 28.8977C52.9119 29.3977 53.215 29.786 53.6051 30.0625C53.9991 30.339 54.4612 30.4773 54.9915 30.4773C55.34 30.4773 55.6562 30.4167 55.9403 30.2955C56.2244 30.1742 56.465 30 56.6619 29.7727C56.8589 29.5455 56.9991 29.2727 57.0824 28.9545H58.4233C58.3475 29.4697 58.16 29.9337 57.8608 30.3466C57.5653 30.7557 57.1733 31.0814 56.6847 31.3239C56.1998 31.5625 55.6354 31.6818 54.9915 31.6818ZM61.7244 26.25V31.5H60.3835V19.8636H61.7244V24.1364H61.8381C62.0426 23.6856 62.3494 23.3277 62.7585 23.0625C63.1714 22.7936 63.7206 22.6591 64.4062 22.6591C65.0009 22.6591 65.5218 22.7784 65.9688 23.017C66.4157 23.2519 66.7623 23.6136 67.0085 24.1023C67.2585 24.5871 67.3835 25.2045 67.3835 25.9545V31.5H66.0426V26.0455C66.0426 25.3523 65.8627 24.8163 65.5028 24.4375C65.1468 24.0549 64.6525 23.8636 64.0199 23.8636C63.5805 23.8636 63.1866 23.9564 62.8381 24.142C62.4934 24.3277 62.2206 24.5985 62.0199 24.9545C61.8229 25.3106 61.7244 25.7424 61.7244 26.25ZM74.5185 31.5V19.8636H75.8594V24.1591H75.973C76.0715 24.0076 76.2079 23.8144 76.3821 23.5795C76.5601 23.3409 76.8139 23.1288 77.1435 22.9432C77.4768 22.7538 77.9276 22.6591 78.4957 22.6591C79.2306 22.6591 79.8783 22.8428 80.4389 23.2102C80.9995 23.5777 81.437 24.0985 81.7514 24.7727C82.0658 25.447 82.223 26.2424 82.223 27.1591C82.223 28.0833 82.0658 28.8845 81.7514 29.5625C81.437 30.2367 81.0014 30.7595 80.4446 31.1307C79.8878 31.4981 79.2457 31.6818 78.5185 31.6818C77.9579 31.6818 77.509 31.589 77.1719 31.4034C76.8348 31.214 76.5753 31 76.3935 30.7614C76.2116 30.5189 76.0715 30.3182 75.973 30.1591H75.8139V31.5H74.5185ZM75.8366 27.1364C75.8366 27.7955 75.9332 28.3769 76.1264 28.8807C76.3196 29.3807 76.6018 29.7727 76.973 30.0568C77.3442 30.3371 77.7988 30.4773 78.3366 30.4773C78.8973 30.4773 79.3651 30.3295 79.7401 30.0341C80.1188 29.7348 80.4029 29.3333 80.5923 28.8295C80.7855 28.322 80.8821 27.7576 80.8821 27.1364C80.8821 26.5227 80.7874 25.9697 80.598 25.4773C80.4124 24.9811 80.1302 24.589 79.7514 24.3011C79.3764 24.0095 78.9048 23.8636 78.3366 23.8636C77.7912 23.8636 77.3329 24.0019 76.9616 24.2784C76.5904 24.5511 76.3101 24.9337 76.1207 25.4261C75.9313 25.9148 75.8366 26.4848 75.8366 27.1364ZM84.8253 34.7727C84.598 34.7727 84.3954 34.7538 84.2173 34.7159C84.0393 34.6818 83.9162 34.6477 83.848 34.6136L84.1889 33.4318C84.5147 33.5152 84.8026 33.5455 85.0526 33.5227C85.3026 33.5 85.5241 33.3883 85.7173 33.1875C85.9143 32.9905 86.0942 32.6705 86.2571 32.2273L86.5071 31.5455L83.2798 22.7727H84.7344L87.1435 29.7273H87.2344L89.6435 22.7727H91.098L87.3935 32.7727C87.2268 33.2235 87.0204 33.5966 86.7741 33.892C86.5279 34.1913 86.242 34.4129 85.9162 34.5568C85.5942 34.7008 85.2306 34.7727 84.8253 34.7727ZM101.141 31.5H97.5497V19.8636H101.3C102.429 19.8636 103.394 20.0966 104.197 20.5625C105 21.0246 105.616 21.6894 106.044 22.5568C106.472 23.4205 106.686 24.4545 106.686 25.6591C106.686 26.8712 106.47 27.9148 106.038 28.7898C105.607 29.661 104.978 30.3314 104.152 30.8011C103.326 31.267 102.322 31.5 101.141 31.5ZM98.9588 30.25H101.05C102.012 30.25 102.809 30.0644 103.442 29.6932C104.074 29.322 104.546 28.7936 104.857 28.108C105.167 27.4223 105.322 26.6061 105.322 25.6591C105.322 24.7197 105.169 23.911 104.862 23.233C104.555 22.5511 104.097 22.0284 103.487 21.6648C102.877 21.2973 102.118 21.1136 101.209 21.1136H98.9588V30.25ZM114.368 27.9318V22.7727H115.709V31.5H114.368V30.0227H114.277C114.072 30.4659 113.754 30.8428 113.322 31.1534C112.891 31.4602 112.345 31.6136 111.686 31.6136C111.141 31.6136 110.656 31.4943 110.232 31.2557C109.807 31.0133 109.474 30.6496 109.232 30.1648C108.989 29.6761 108.868 29.0606 108.868 28.3182V22.7727H110.209V28.2273C110.209 28.8636 110.387 29.3712 110.743 29.75C111.103 30.1288 111.561 30.3182 112.118 30.3182C112.451 30.3182 112.79 30.233 113.135 30.0625C113.483 29.892 113.775 29.6307 114.01 29.2784C114.249 28.9261 114.368 28.4773 114.368 27.9318ZM120.733 31.7045C120.18 31.7045 119.678 31.6004 119.227 31.392C118.777 31.1799 118.419 30.875 118.153 30.4773C117.888 30.0758 117.756 29.5909 117.756 29.0227C117.756 28.5227 117.854 28.1174 118.051 27.8068C118.248 27.4924 118.511 27.2462 118.841 27.0682C119.17 26.8902 119.534 26.7576 119.932 26.6705C120.333 26.5795 120.737 26.5076 121.142 26.4545C121.672 26.3864 122.102 26.3352 122.432 26.3011C122.765 26.2633 123.008 26.2008 123.159 26.1136C123.314 26.0265 123.392 25.875 123.392 25.6591V25.6136C123.392 25.053 123.239 24.6174 122.932 24.3068C122.629 23.9962 122.169 23.8409 121.551 23.8409C120.911 23.8409 120.409 23.9811 120.045 24.2614C119.682 24.5417 119.426 24.8409 119.278 25.1591L118.006 24.7045C118.233 24.1742 118.536 23.7614 118.915 23.4659C119.297 23.1667 119.714 22.9583 120.165 22.8409C120.619 22.7197 121.066 22.6591 121.506 22.6591C121.786 22.6591 122.108 22.6932 122.472 22.7614C122.839 22.8258 123.193 22.9602 123.534 23.1648C123.879 23.3693 124.165 23.678 124.392 24.0909C124.619 24.5038 124.733 25.0568 124.733 25.75V31.5H123.392V30.3182H123.324C123.233 30.5076 123.081 30.7102 122.869 30.9261C122.657 31.142 122.375 31.3258 122.023 31.4773C121.67 31.6288 121.241 31.7045 120.733 31.7045ZM120.938 30.5C121.468 30.5 121.915 30.3958 122.278 30.1875C122.646 29.9792 122.922 29.7102 123.108 29.3807C123.297 29.0511 123.392 28.7045 123.392 28.3409V27.1136C123.335 27.1818 123.21 27.2443 123.017 27.3011C122.828 27.3542 122.608 27.4015 122.358 27.4432C122.112 27.4811 121.871 27.5152 121.636 27.5455C121.405 27.572 121.218 27.5947 121.074 27.6136C120.725 27.6591 120.4 27.733 120.097 27.8352C119.797 27.9337 119.555 28.0833 119.369 28.2841C119.188 28.4811 119.097 28.75 119.097 29.0909C119.097 29.5568 119.269 29.9091 119.614 30.1477C119.962 30.3826 120.403 30.5 120.938 30.5ZM141.089 19.8636V31.5H139.726L133.385 22.3636H133.271V31.5H131.862V19.8636H133.226L139.589 29.0227H139.703V19.8636H141.089ZM146.295 31.7045C145.742 31.7045 145.241 31.6004 144.79 31.392C144.339 31.1799 143.981 30.875 143.716 30.4773C143.451 30.0758 143.318 29.5909 143.318 29.0227C143.318 28.5227 143.417 28.1174 143.614 27.8068C143.811 27.4924 144.074 27.2462 144.403 27.0682C144.733 26.8902 145.097 26.7576 145.494 26.6705C145.896 26.5795 146.299 26.5076 146.705 26.4545C147.235 26.3864 147.665 26.3352 147.994 26.3011C148.328 26.2633 148.57 26.2008 148.722 26.1136C148.877 26.0265 148.955 25.875 148.955 25.6591V25.6136C148.955 25.053 148.801 24.6174 148.494 24.3068C148.191 23.9962 147.731 23.8409 147.114 23.8409C146.473 23.8409 145.972 23.9811 145.608 24.2614C145.244 24.5417 144.989 24.8409 144.841 25.1591L143.568 24.7045C143.795 24.1742 144.098 23.7614 144.477 23.4659C144.86 23.1667 145.277 22.9583 145.727 22.8409C146.182 22.7197 146.629 22.6591 147.068 22.6591C147.348 22.6591 147.67 22.6932 148.034 22.7614C148.402 22.8258 148.756 22.9602 149.097 23.1648C149.441 23.3693 149.727 23.678 149.955 24.0909C150.182 24.5038 150.295 25.0568 150.295 25.75V31.5H148.955V30.3182H148.886C148.795 30.5076 148.644 30.7102 148.432 30.9261C148.22 31.142 147.938 31.3258 147.585 31.4773C147.233 31.6288 146.803 31.7045 146.295 31.7045ZM146.5 30.5C147.03 30.5 147.477 30.3958 147.841 30.1875C148.208 29.9792 148.485 29.7102 148.67 29.3807C148.86 29.0511 148.955 28.7045 148.955 28.3409V27.1136C148.898 27.1818 148.773 27.2443 148.58 27.3011C148.39 27.3542 148.17 27.4015 147.92 27.4432C147.674 27.4811 147.434 27.5152 147.199 27.5455C146.968 27.572 146.78 27.5947 146.636 27.6136C146.288 27.6591 145.962 27.733 145.659 27.8352C145.36 27.9337 145.117 28.0833 144.932 28.2841C144.75 28.4811 144.659 28.75 144.659 29.0909C144.659 29.5568 144.831 29.9091 145.176 30.1477C145.525 30.3826 145.966 30.5 146.5 30.5ZM152.743 31.5V22.7727H154.038V24.1364H154.152C154.334 23.6705 154.627 23.3087 155.033 23.0511C155.438 22.7898 155.925 22.6591 156.493 22.6591C157.069 22.6591 157.548 22.7898 157.93 23.0511C158.317 23.3087 158.618 23.6705 158.834 24.1364H158.925C159.148 23.6856 159.483 23.3277 159.93 23.0625C160.377 22.7936 160.913 22.6591 161.538 22.6591C162.319 22.6591 162.957 22.9034 163.453 23.392C163.949 23.8769 164.197 24.6326 164.197 25.6591V31.5H162.857V25.6591C162.857 25.0152 162.68 24.5549 162.328 24.2784C161.976 24.0019 161.561 23.8636 161.084 23.8636C160.47 23.8636 159.995 24.0492 159.658 24.4205C159.321 24.7879 159.152 25.2538 159.152 25.8182V31.5H157.788V25.5227C157.788 25.0265 157.627 24.6269 157.305 24.3239C156.983 24.017 156.569 23.8636 156.061 23.8636C155.713 23.8636 155.387 23.9564 155.084 24.142C154.785 24.3277 154.542 24.5852 154.357 24.9148C154.175 25.2405 154.084 25.6174 154.084 26.0455V31.5H152.743ZM170.308 31.6818C169.467 31.6818 168.742 31.4962 168.132 31.125C167.526 30.75 167.058 30.2273 166.729 29.5568C166.403 28.8826 166.24 28.0985 166.24 27.2045C166.24 26.3106 166.403 25.5227 166.729 24.8409C167.058 24.1553 167.517 23.6212 168.104 23.2386C168.695 22.8523 169.384 22.6591 170.172 22.6591C170.626 22.6591 171.075 22.7348 171.518 22.8864C171.962 23.0379 172.365 23.2841 172.729 23.625C173.092 23.9621 173.382 24.4091 173.598 24.9659C173.814 25.5227 173.922 26.2083 173.922 27.0227V27.5909H167.195V26.4318H172.558C172.558 25.9394 172.46 25.5 172.263 25.1136C172.07 24.7273 171.793 24.4223 171.433 24.1989C171.077 23.9754 170.657 23.8636 170.172 23.8636C169.638 23.8636 169.176 23.9962 168.786 24.2614C168.399 24.5227 168.102 24.8636 167.893 25.2841C167.685 25.7045 167.581 26.1553 167.581 26.6364V27.4091C167.581 28.0682 167.695 28.6269 167.922 29.0852C168.153 29.5398 168.473 29.8864 168.882 30.125C169.291 30.3598 169.767 30.4773 170.308 30.4773C170.661 30.4773 170.979 30.428 171.263 30.3295C171.551 30.2273 171.799 30.0758 172.007 29.875C172.215 29.6705 172.376 29.4167 172.49 29.1136L173.786 29.4773C173.649 29.9167 173.42 30.303 173.098 30.6364C172.776 30.9659 172.378 31.2235 171.905 31.4091C171.431 31.5909 170.899 31.6818 170.308 31.6818Z" fill="#868686"/>
<rect x="313" y="4" width="54" height="44" rx="6" fill="#F3F4F6"/>
<path d="M349 35L343 29L349 35ZM345 24C345 24.9193 344.819 25.8295 344.467 26.6788C344.115 27.5281 343.6 28.2997 342.95 28.9497C342.3 29.5998 341.528 30.1154 340.679 30.4672C339.83 30.8189 338.919 31 338 31C337.081 31 336.17 30.8189 335.321 30.4672C334.472 30.1154 333.7 29.5998 333.05 28.9497C332.4 28.2997 331.885 27.5281 331.533 26.6788C331.181 25.8295 331 24.9193 331 24C331 22.1435 331.737 20.363 333.05 19.0503C334.363 17.7375 336.143 17 338 17C339.857 17 341.637 17.7375 342.95 19.0503C344.263 20.363 345 22.1435 345 24Z" stroke="#868686" stroke-width="1.5" stroke-linecap="round" stroke-linejoin="round"/>
</svg>
