<svg width="330" height="834" viewBox="0 0 330 834" fill="none" xmlns="http://www.w3.org/2000/svg">
<rect x="0.25" y="0.25" width="329.5" height="833.5" rx="31.75" fill="white" stroke="#E2E2E2" stroke-width="0.5"/>
<rect x="21.25" y="331.25" width="288.5" height="96.5" rx="4.75" fill="white" stroke="#E2E2E2" stroke-width="0.5"/>
<path d="M21 299C21 296.239 23.2386 294 26 294H49.5504H179.775H305C307.761 294 310 296.239 310 299V344C310 346.761 307.761 349 305 349H26C23.2386 349 21 346.761 21 344V299Z" fill="#F7F8FA"/>
<path d="M88.2614 327H86.3977L90.5852 315.364H92.6136L96.8011 327H94.9375L91.6477 317.477H91.5568L88.2614 327ZM88.5739 322.443H94.6193V323.92H88.5739V322.443ZM98.3452 330.273V318.273H100.004V319.688H100.146C100.245 319.506 100.387 319.295 100.572 319.057C100.758 318.818 101.016 318.61 101.345 318.432C101.675 318.25 102.11 318.159 102.652 318.159C103.357 318.159 103.985 318.337 104.538 318.693C105.091 319.049 105.525 319.562 105.839 320.233C106.158 320.903 106.317 321.71 106.317 322.653C106.317 323.597 106.16 324.405 105.845 325.08C105.531 325.75 105.099 326.267 104.55 326.631C104 326.991 103.374 327.17 102.669 327.17C102.139 327.17 101.705 327.081 101.368 326.903C101.035 326.725 100.773 326.517 100.584 326.278C100.394 326.04 100.249 325.828 100.146 325.642H100.044V330.273H98.3452ZM100.01 322.636C100.01 323.25 100.099 323.788 100.277 324.25C100.455 324.712 100.713 325.074 101.05 325.335C101.387 325.593 101.8 325.722 102.288 325.722C102.796 325.722 103.22 325.587 103.561 325.318C103.902 325.045 104.16 324.676 104.334 324.21C104.512 323.744 104.601 323.22 104.601 322.636C104.601 322.061 104.514 321.544 104.339 321.085C104.169 320.627 103.911 320.265 103.567 320C103.226 319.735 102.8 319.602 102.288 319.602C101.796 319.602 101.379 319.729 101.038 319.983C100.701 320.237 100.446 320.591 100.271 321.045C100.097 321.5 100.01 322.03 100.01 322.636ZM108.22 330.273V318.273H109.879V319.688H110.021C110.12 319.506 110.262 319.295 110.447 319.057C110.633 318.818 110.891 318.61 111.22 318.432C111.55 318.25 111.985 318.159 112.527 318.159C113.232 318.159 113.86 318.337 114.413 318.693C114.966 319.049 115.4 319.562 115.714 320.233C116.033 320.903 116.192 321.71 116.192 322.653C116.192 323.597 116.035 324.405 115.72 325.08C115.406 325.75 114.974 326.267 114.425 326.631C113.875 326.991 113.249 327.17 112.544 327.17C112.014 327.17 111.58 327.081 111.243 326.903C110.91 326.725 110.648 326.517 110.459 326.278C110.269 326.04 110.124 325.828 110.021 325.642H109.919V330.273H108.22ZM109.885 322.636C109.885 323.25 109.974 323.788 110.152 324.25C110.33 324.712 110.588 325.074 110.925 325.335C111.262 325.593 111.675 325.722 112.163 325.722C112.671 325.722 113.095 325.587 113.436 325.318C113.777 325.045 114.035 324.676 114.209 324.21C114.387 323.744 114.476 323.22 114.476 322.636C114.476 322.061 114.389 321.544 114.214 321.085C114.044 320.627 113.786 320.265 113.442 320C113.101 319.735 112.675 319.602 112.163 319.602C111.671 319.602 111.254 319.729 110.913 319.983C110.576 320.237 110.321 320.591 110.146 321.045C109.972 321.5 109.885 322.03 109.885 322.636ZM121.857 327.176C120.997 327.176 120.256 326.992 119.635 326.625C119.018 326.254 118.54 325.733 118.203 325.062C117.87 324.388 117.703 323.598 117.703 322.693C117.703 321.799 117.87 321.011 118.203 320.33C118.54 319.648 119.01 319.116 119.612 318.733C120.218 318.35 120.927 318.159 121.737 318.159C122.23 318.159 122.707 318.241 123.169 318.403C123.631 318.566 124.046 318.822 124.413 319.17C124.781 319.519 125.071 319.972 125.283 320.528C125.495 321.081 125.601 321.754 125.601 322.545V323.148H118.663V321.875H123.936C123.936 321.428 123.845 321.032 123.663 320.688C123.482 320.339 123.226 320.064 122.896 319.864C122.571 319.663 122.188 319.562 121.749 319.562C121.271 319.562 120.855 319.68 120.499 319.915C120.146 320.146 119.874 320.449 119.68 320.824C119.491 321.195 119.396 321.598 119.396 322.034V323.028C119.396 323.612 119.499 324.108 119.703 324.517C119.911 324.926 120.201 325.239 120.572 325.455C120.944 325.667 121.377 325.773 121.874 325.773C122.196 325.773 122.489 325.727 122.754 325.636C123.019 325.542 123.249 325.402 123.442 325.216C123.635 325.03 123.783 324.801 123.885 324.528L125.493 324.818C125.364 325.292 125.133 325.706 124.8 326.062C124.47 326.415 124.055 326.689 123.555 326.886C123.059 327.08 122.493 327.176 121.857 327.176ZM130.026 327.193C129.473 327.193 128.973 327.091 128.526 326.886C128.079 326.678 127.724 326.377 127.463 325.983C127.205 325.589 127.077 325.106 127.077 324.534C127.077 324.042 127.171 323.636 127.361 323.318C127.55 323 127.806 322.748 128.128 322.562C128.45 322.377 128.81 322.237 129.207 322.142C129.605 322.047 130.01 321.975 130.423 321.926C130.946 321.866 131.37 321.816 131.696 321.778C132.022 321.737 132.259 321.67 132.406 321.58C132.554 321.489 132.628 321.341 132.628 321.136V321.097C132.628 320.6 132.488 320.216 132.207 319.943C131.931 319.67 131.518 319.534 130.969 319.534C130.397 319.534 129.946 319.661 129.616 319.915C129.291 320.165 129.065 320.443 128.94 320.75L127.344 320.386C127.533 319.856 127.81 319.428 128.173 319.102C128.541 318.773 128.963 318.534 129.44 318.386C129.918 318.235 130.42 318.159 130.946 318.159C131.295 318.159 131.664 318.201 132.054 318.284C132.448 318.364 132.815 318.511 133.156 318.727C133.501 318.943 133.783 319.252 134.003 319.653C134.223 320.051 134.332 320.568 134.332 321.205V327H132.673V325.807H132.605C132.495 326.027 132.33 326.242 132.111 326.455C131.891 326.667 131.609 326.843 131.264 326.983C130.92 327.123 130.507 327.193 130.026 327.193ZM130.395 325.83C130.865 325.83 131.266 325.737 131.599 325.551C131.937 325.366 132.192 325.123 132.366 324.824C132.545 324.521 132.634 324.197 132.634 323.852V322.727C132.573 322.788 132.455 322.845 132.281 322.898C132.111 322.947 131.916 322.991 131.696 323.028C131.476 323.062 131.262 323.095 131.054 323.125C130.846 323.152 130.671 323.174 130.531 323.193C130.202 323.235 129.901 323.305 129.628 323.403C129.359 323.502 129.143 323.644 128.98 323.83C128.821 324.011 128.741 324.254 128.741 324.557C128.741 324.977 128.897 325.295 129.207 325.511C129.518 325.723 129.914 325.83 130.395 325.83ZM136.595 327V318.273H138.237V319.659H138.328C138.487 319.189 138.768 318.82 139.169 318.551C139.574 318.278 140.033 318.142 140.544 318.142C140.65 318.142 140.775 318.146 140.919 318.153C141.067 318.161 141.182 318.17 141.266 318.182V319.807C141.197 319.788 141.076 319.767 140.902 319.744C140.728 319.718 140.554 319.705 140.379 319.705C139.978 319.705 139.62 319.79 139.305 319.96C138.995 320.127 138.749 320.36 138.567 320.659C138.385 320.955 138.294 321.292 138.294 321.67V327H136.595ZM145.197 327.193C144.644 327.193 144.144 327.091 143.697 326.886C143.25 326.678 142.896 326.377 142.635 325.983C142.377 325.589 142.249 325.106 142.249 324.534C142.249 324.042 142.343 323.636 142.533 323.318C142.722 323 142.978 322.748 143.3 322.562C143.622 322.377 143.982 322.237 144.379 322.142C144.777 322.047 145.182 321.975 145.595 321.926C146.118 321.866 146.542 321.816 146.868 321.778C147.194 321.737 147.43 321.67 147.578 321.58C147.726 321.489 147.8 321.341 147.8 321.136V321.097C147.8 320.6 147.66 320.216 147.379 319.943C147.103 319.67 146.69 319.534 146.141 319.534C145.569 319.534 145.118 319.661 144.788 319.915C144.463 320.165 144.237 320.443 144.112 320.75L142.516 320.386C142.705 319.856 142.982 319.428 143.345 319.102C143.713 318.773 144.135 318.534 144.612 318.386C145.089 318.235 145.591 318.159 146.118 318.159C146.466 318.159 146.836 318.201 147.226 318.284C147.62 318.364 147.987 318.511 148.328 318.727C148.673 318.943 148.955 319.252 149.175 319.653C149.394 320.051 149.504 320.568 149.504 321.205V327H147.845V325.807H147.777C147.667 326.027 147.502 326.242 147.283 326.455C147.063 326.667 146.781 326.843 146.436 326.983C146.091 327.123 145.679 327.193 145.197 327.193ZM145.567 325.83C146.036 325.83 146.438 325.737 146.771 325.551C147.108 325.366 147.364 325.123 147.538 324.824C147.716 324.521 147.805 324.197 147.805 323.852V322.727C147.745 322.788 147.627 322.845 147.453 322.898C147.283 322.947 147.088 322.991 146.868 323.028C146.648 323.062 146.434 323.095 146.226 323.125C146.018 323.152 145.843 323.174 145.703 323.193C145.374 323.235 145.072 323.305 144.8 323.403C144.531 323.502 144.315 323.644 144.152 323.83C143.993 324.011 143.913 324.254 143.913 324.557C143.913 324.977 144.069 325.295 144.379 325.511C144.69 325.723 145.086 325.83 145.567 325.83ZM153.466 321.818V327H151.767V318.273H153.398V319.693H153.506C153.706 319.231 154.021 318.86 154.449 318.58C154.881 318.299 155.424 318.159 156.08 318.159C156.674 318.159 157.195 318.284 157.642 318.534C158.089 318.78 158.436 319.148 158.682 319.636C158.928 320.125 159.051 320.729 159.051 321.449V327H157.352V321.653C157.352 321.021 157.188 320.527 156.858 320.17C156.528 319.811 156.076 319.631 155.5 319.631C155.106 319.631 154.756 319.716 154.449 319.886C154.146 320.057 153.905 320.307 153.727 320.636C153.553 320.962 153.466 321.356 153.466 321.818ZM165.006 327.176C164.161 327.176 163.434 326.985 162.824 326.602C162.218 326.216 161.752 325.684 161.426 325.006C161.1 324.328 160.938 323.551 160.938 322.676C160.938 321.79 161.104 321.008 161.438 320.33C161.771 319.648 162.241 319.116 162.847 318.733C163.453 318.35 164.167 318.159 164.989 318.159C165.652 318.159 166.242 318.282 166.761 318.528C167.28 318.771 167.699 319.112 168.017 319.551C168.339 319.991 168.53 320.504 168.591 321.091H166.938C166.847 320.682 166.638 320.33 166.312 320.034C165.991 319.739 165.559 319.591 165.017 319.591C164.544 319.591 164.129 319.716 163.773 319.966C163.42 320.212 163.146 320.564 162.949 321.023C162.752 321.477 162.653 322.015 162.653 322.636C162.653 323.273 162.75 323.822 162.943 324.284C163.136 324.746 163.409 325.104 163.761 325.358C164.117 325.612 164.536 325.739 165.017 325.739C165.339 325.739 165.631 325.68 165.892 325.562C166.157 325.441 166.379 325.269 166.557 325.045C166.739 324.822 166.866 324.553 166.938 324.239H168.591C168.53 324.803 168.347 325.307 168.04 325.75C167.733 326.193 167.322 326.542 166.807 326.795C166.295 327.049 165.695 327.176 165.006 327.176ZM174.169 327.176C173.309 327.176 172.569 326.992 171.947 326.625C171.33 326.254 170.853 325.733 170.516 325.062C170.182 324.388 170.016 323.598 170.016 322.693C170.016 321.799 170.182 321.011 170.516 320.33C170.853 319.648 171.322 319.116 171.925 318.733C172.531 318.35 173.239 318.159 174.05 318.159C174.542 318.159 175.019 318.241 175.482 318.403C175.944 318.566 176.358 318.822 176.726 319.17C177.093 319.519 177.383 319.972 177.595 320.528C177.807 321.081 177.913 321.754 177.913 322.545V323.148H170.976V321.875H176.249C176.249 321.428 176.158 321.032 175.976 320.688C175.794 320.339 175.538 320.064 175.209 319.864C174.883 319.663 174.5 319.562 174.061 319.562C173.584 319.562 173.167 319.68 172.811 319.915C172.459 320.146 172.186 320.449 171.993 320.824C171.804 321.195 171.709 321.598 171.709 322.034V323.028C171.709 323.612 171.811 324.108 172.016 324.517C172.224 324.926 172.514 325.239 172.885 325.455C173.256 325.667 173.69 325.773 174.186 325.773C174.508 325.773 174.802 325.727 175.067 325.636C175.332 325.542 175.561 325.402 175.754 325.216C175.947 325.03 176.095 324.801 176.197 324.528L177.805 324.818C177.677 325.292 177.446 325.706 177.112 326.062C176.783 326.415 176.368 326.689 175.868 326.886C175.372 327.08 174.805 327.176 174.169 327.176ZM190.516 318.42C190.455 317.883 190.205 317.466 189.766 317.17C189.326 316.871 188.773 316.722 188.107 316.722C187.629 316.722 187.216 316.797 186.868 316.949C186.519 317.097 186.249 317.301 186.055 317.562C185.866 317.82 185.771 318.114 185.771 318.443C185.771 318.72 185.836 318.958 185.964 319.159C186.097 319.36 186.269 319.528 186.482 319.665C186.697 319.797 186.929 319.909 187.175 320C187.421 320.087 187.658 320.159 187.885 320.216L189.021 320.511C189.393 320.602 189.773 320.725 190.163 320.881C190.554 321.036 190.915 321.241 191.249 321.494C191.582 321.748 191.851 322.062 192.055 322.438C192.264 322.812 192.368 323.261 192.368 323.784C192.368 324.443 192.197 325.028 191.857 325.54C191.519 326.051 191.029 326.455 190.385 326.75C189.745 327.045 188.97 327.193 188.061 327.193C187.19 327.193 186.436 327.055 185.8 326.778C185.163 326.502 184.665 326.11 184.305 325.602C183.946 325.091 183.747 324.485 183.709 323.784H185.47C185.504 324.205 185.641 324.555 185.879 324.835C186.122 325.112 186.43 325.318 186.805 325.455C187.184 325.587 187.599 325.653 188.05 325.653C188.546 325.653 188.987 325.576 189.374 325.42C189.764 325.261 190.071 325.042 190.294 324.761C190.518 324.477 190.629 324.146 190.629 323.767C190.629 323.422 190.531 323.14 190.334 322.92C190.141 322.701 189.877 322.519 189.544 322.375C189.214 322.231 188.841 322.104 188.425 321.994L187.05 321.619C186.118 321.366 185.379 320.992 184.834 320.5C184.292 320.008 184.021 319.356 184.021 318.545C184.021 317.875 184.203 317.29 184.567 316.79C184.93 316.29 185.423 315.902 186.044 315.625C186.665 315.345 187.366 315.205 188.146 315.205C188.934 315.205 189.629 315.343 190.232 315.619C190.838 315.896 191.315 316.277 191.663 316.761C192.012 317.242 192.194 317.795 192.209 318.42H190.516ZM198.091 327.176C197.231 327.176 196.491 326.992 195.869 326.625C195.252 326.254 194.775 325.733 194.438 325.062C194.104 324.388 193.938 323.598 193.938 322.693C193.938 321.799 194.104 321.011 194.438 320.33C194.775 319.648 195.244 319.116 195.847 318.733C196.453 318.35 197.161 318.159 197.972 318.159C198.464 318.159 198.941 318.241 199.403 318.403C199.866 318.566 200.28 318.822 200.648 319.17C201.015 319.519 201.305 319.972 201.517 320.528C201.729 321.081 201.835 321.754 201.835 322.545V323.148H194.898V321.875H200.17C200.17 321.428 200.08 321.032 199.898 320.688C199.716 320.339 199.46 320.064 199.131 319.864C198.805 319.663 198.422 319.562 197.983 319.562C197.506 319.562 197.089 319.68 196.733 319.915C196.381 320.146 196.108 320.449 195.915 320.824C195.725 321.195 195.631 321.598 195.631 322.034V323.028C195.631 323.612 195.733 324.108 195.938 324.517C196.146 324.926 196.436 325.239 196.807 325.455C197.178 325.667 197.612 325.773 198.108 325.773C198.43 325.773 198.723 325.727 198.989 325.636C199.254 325.542 199.483 325.402 199.676 325.216C199.869 325.03 200.017 324.801 200.119 324.528L201.727 324.818C201.598 325.292 201.367 325.706 201.034 326.062C200.705 326.415 200.29 326.689 199.79 326.886C199.294 327.08 198.727 327.176 198.091 327.176ZM207.794 318.273V319.636H203.027V318.273H207.794ZM204.305 316.182H206.004V324.438C206.004 324.767 206.054 325.015 206.152 325.182C206.25 325.345 206.377 325.456 206.533 325.517C206.692 325.574 206.864 325.602 207.05 325.602C207.186 325.602 207.305 325.593 207.408 325.574C207.51 325.555 207.589 325.54 207.646 325.528L207.953 326.932C207.855 326.97 207.714 327.008 207.533 327.045C207.351 327.087 207.124 327.11 206.851 327.114C206.404 327.121 205.987 327.042 205.601 326.875C205.214 326.708 204.902 326.451 204.663 326.102C204.425 325.754 204.305 325.316 204.305 324.79V316.182ZM213.747 318.273V319.636H208.98V318.273H213.747ZM210.259 316.182H211.957V324.438C211.957 324.767 212.007 325.015 212.105 325.182C212.204 325.345 212.33 325.456 212.486 325.517C212.645 325.574 212.817 325.602 213.003 325.602C213.139 325.602 213.259 325.593 213.361 325.574C213.463 325.555 213.543 325.54 213.599 325.528L213.906 326.932C213.808 326.97 213.668 327.008 213.486 327.045C213.304 327.087 213.077 327.11 212.804 327.114C212.357 327.121 211.94 327.042 211.554 326.875C211.168 326.708 210.855 326.451 210.616 326.102C210.378 325.754 210.259 325.316 210.259 324.79V316.182ZM215.626 327V318.273H217.325V327H215.626ZM216.484 316.926C216.189 316.926 215.935 316.828 215.723 316.631C215.515 316.43 215.411 316.191 215.411 315.915C215.411 315.634 215.515 315.396 215.723 315.199C215.935 314.998 216.189 314.898 216.484 314.898C216.78 314.898 217.032 314.998 217.24 315.199C217.452 315.396 217.558 315.634 217.558 315.915C217.558 316.191 217.452 316.43 217.24 316.631C217.032 316.828 216.78 316.926 216.484 316.926ZM221.31 321.818V327H219.611V318.273H221.241V319.693H221.349C221.55 319.231 221.865 318.86 222.293 318.58C222.724 318.299 223.268 318.159 223.923 318.159C224.518 318.159 225.039 318.284 225.486 318.534C225.933 318.78 226.279 319.148 226.526 319.636C226.772 320.125 226.895 320.729 226.895 321.449V327H225.196V321.653C225.196 321.021 225.031 320.527 224.702 320.17C224.372 319.811 223.92 319.631 223.344 319.631C222.95 319.631 222.599 319.716 222.293 319.886C221.99 320.057 221.749 320.307 221.571 320.636C221.397 320.962 221.31 321.356 221.31 321.818ZM232.832 330.455C232.139 330.455 231.543 330.364 231.043 330.182C230.546 330 230.141 329.759 229.827 329.46C229.512 329.161 229.277 328.833 229.122 328.477L230.582 327.875C230.685 328.042 230.821 328.218 230.991 328.403C231.166 328.593 231.401 328.754 231.696 328.886C231.995 329.019 232.38 329.085 232.849 329.085C233.493 329.085 234.026 328.928 234.446 328.614C234.866 328.303 235.077 327.807 235.077 327.125V325.409H234.969C234.866 325.595 234.719 325.801 234.526 326.028C234.336 326.256 234.075 326.453 233.741 326.619C233.408 326.786 232.974 326.869 232.44 326.869C231.751 326.869 231.13 326.708 230.577 326.386C230.027 326.061 229.592 325.581 229.27 324.949C228.952 324.312 228.793 323.53 228.793 322.602C228.793 321.674 228.95 320.879 229.264 320.216C229.582 319.553 230.018 319.045 230.571 318.693C231.124 318.337 231.751 318.159 232.452 318.159C232.993 318.159 233.431 318.25 233.764 318.432C234.098 318.61 234.357 318.818 234.543 319.057C234.732 319.295 234.878 319.506 234.98 319.688H235.105V318.273H236.77V327.193C236.77 327.943 236.596 328.559 236.247 329.04C235.899 329.521 235.427 329.877 234.832 330.108C234.241 330.339 233.575 330.455 232.832 330.455ZM232.815 325.46C233.304 325.46 233.717 325.347 234.054 325.119C234.395 324.888 234.652 324.559 234.827 324.131C235.005 323.699 235.094 323.182 235.094 322.58C235.094 321.992 235.007 321.475 234.832 321.028C234.658 320.581 234.402 320.233 234.065 319.983C233.728 319.729 233.312 319.602 232.815 319.602C232.304 319.602 231.878 319.735 231.537 320C231.196 320.261 230.938 320.617 230.764 321.068C230.594 321.519 230.509 322.023 230.509 322.58C230.509 323.152 230.596 323.653 230.77 324.085C230.944 324.517 231.202 324.854 231.543 325.097C231.887 325.339 232.312 325.46 232.815 325.46ZM245.588 320.403L244.048 320.676C243.984 320.479 243.882 320.292 243.741 320.114C243.605 319.936 243.42 319.79 243.185 319.676C242.95 319.562 242.656 319.506 242.304 319.506C241.823 319.506 241.421 319.614 241.099 319.83C240.777 320.042 240.616 320.316 240.616 320.653C240.616 320.945 240.724 321.18 240.94 321.358C241.156 321.536 241.505 321.682 241.986 321.795L243.372 322.114C244.175 322.299 244.774 322.585 245.168 322.972C245.562 323.358 245.759 323.86 245.759 324.477C245.759 325 245.607 325.466 245.304 325.875C245.005 326.28 244.586 326.598 244.048 326.83C243.514 327.061 242.895 327.176 242.19 327.176C241.213 327.176 240.416 326.968 239.798 326.551C239.181 326.131 238.802 325.534 238.662 324.761L240.304 324.511C240.406 324.939 240.616 325.263 240.935 325.483C241.253 325.699 241.668 325.807 242.179 325.807C242.736 325.807 243.181 325.691 243.514 325.46C243.848 325.225 244.014 324.939 244.014 324.602C244.014 324.33 243.912 324.1 243.707 323.915C243.507 323.729 243.198 323.589 242.781 323.494L241.304 323.17C240.49 322.985 239.887 322.689 239.497 322.284C239.111 321.879 238.918 321.366 238.918 320.744C238.918 320.229 239.062 319.778 239.349 319.392C239.637 319.006 240.035 318.705 240.543 318.489C241.05 318.269 241.632 318.159 242.287 318.159C243.23 318.159 243.973 318.364 244.514 318.773C245.056 319.178 245.414 319.722 245.588 320.403Z" fill="#1FA45B"/>
<circle cx="54" cy="322" r="19" fill="#E8F0F5"/>
<path d="M50 312.75H47C45.7574 312.75 44.75 313.757 44.75 315V318C44.75 319.243 45.7574 320.25 47 320.25H50C51.2426 320.25 52.25 319.243 52.25 318V315C52.25 313.757 51.2426 312.75 50 312.75Z" stroke="#1FA45B" stroke-width="1.5"/>
<path d="M61 312.75H58C56.7574 312.75 55.75 313.757 55.75 315V318C55.75 319.243 56.7574 320.25 58 320.25H61C62.2426 320.25 63.25 319.243 63.25 318V315C63.25 313.757 62.2426 312.75 61 312.75Z" stroke="#1FA45B" stroke-width="1.5"/>
<path d="M61 323.75H58C56.7574 323.75 55.75 324.757 55.75 326V329C55.75 330.243 56.7574 331.25 58 331.25H61C62.2426 331.25 63.25 330.243 63.25 329V326C63.25 324.757 62.2426 323.75 61 323.75Z" stroke="#1FA45B" stroke-width="1.5"/>
<path d="M50 323.75H47C45.7574 323.75 44.75 324.757 44.75 326V329C44.75 330.243 45.7574 331.25 47 331.25H50C51.2426 331.25 52.25 330.243 52.25 329V326C52.25 324.757 51.2426 323.75 50 323.75Z" stroke="#1FA45B" stroke-width="1.5"/>
<path d="M21 299C21 296.239 23.2386 294 26 294V349C23.2386 349 21 346.761 21 344V299Z" fill="#1FA45B"/>
<path d="M46.6364 384.364V396H45.2727L38.9318 386.864H38.8182V396H37.4091V384.364H38.7727L45.1364 393.523H45.25V384.364H46.6364ZM49.2741 396V387.273H50.6151V396H49.2741ZM49.956 385.818C49.6946 385.818 49.4692 385.729 49.2798 385.551C49.0942 385.373 49.0014 385.159 49.0014 384.909C49.0014 384.659 49.0942 384.445 49.2798 384.267C49.4692 384.089 49.6946 384 49.956 384C50.2173 384 50.4408 384.089 50.6264 384.267C50.8158 384.445 50.9105 384.659 50.9105 384.909C50.9105 385.159 50.8158 385.373 50.6264 385.551C50.4408 385.729 50.2173 385.818 49.956 385.818ZM56.5938 399.455C55.946 399.455 55.3892 399.371 54.9233 399.205C54.4574 399.042 54.0691 398.826 53.7585 398.557C53.4517 398.292 53.2074 398.008 53.0256 397.705L54.0938 396.955C54.215 397.114 54.3684 397.295 54.554 397.5C54.7396 397.708 54.9934 397.888 55.3153 398.04C55.6411 398.195 56.0672 398.273 56.5938 398.273C57.2983 398.273 57.8797 398.102 58.3381 397.761C58.7964 397.42 59.0256 396.886 59.0256 396.159V394.386H58.9119C58.8134 394.545 58.6733 394.742 58.4915 394.977C58.3134 395.208 58.0559 395.415 57.7188 395.597C57.3854 395.775 56.9347 395.864 56.3665 395.864C55.6619 395.864 55.0294 395.697 54.4688 395.364C53.9119 395.03 53.4706 394.545 53.1449 393.909C52.8229 393.273 52.6619 392.5 52.6619 391.591C52.6619 390.697 52.8191 389.919 53.1335 389.256C53.4479 388.589 53.8854 388.074 54.446 387.71C55.0066 387.343 55.6544 387.159 56.3892 387.159C56.9574 387.159 57.4081 387.254 57.7415 387.443C58.0786 387.629 58.3362 387.841 58.5142 388.08C58.696 388.314 58.8362 388.508 58.9347 388.659H59.071V387.273H60.3665V396.25C60.3665 397 60.196 397.61 59.8551 398.08C59.518 398.553 59.0634 398.9 58.4915 399.119C57.9233 399.343 57.2907 399.455 56.5938 399.455ZM56.5483 394.659C57.0862 394.659 57.5407 394.536 57.9119 394.29C58.2831 394.044 58.5653 393.689 58.7585 393.227C58.9517 392.765 59.0483 392.212 59.0483 391.568C59.0483 390.939 58.9536 390.384 58.7642 389.903C58.5748 389.422 58.2945 389.045 57.9233 388.773C57.5521 388.5 57.0938 388.364 56.5483 388.364C55.9801 388.364 55.5066 388.508 55.1278 388.795C54.7528 389.083 54.4706 389.47 54.2812 389.955C54.0956 390.439 54.0028 390.977 54.0028 391.568C54.0028 392.174 54.0975 392.71 54.2869 393.176C54.4801 393.638 54.7642 394.002 55.1392 394.267C55.518 394.528 55.9877 394.659 56.5483 394.659ZM64.1619 390.75V396H62.821V384.364H64.1619V388.636H64.2756C64.4801 388.186 64.7869 387.828 65.196 387.562C65.6089 387.294 66.1581 387.159 66.8438 387.159C67.4384 387.159 67.9593 387.278 68.4062 387.517C68.8532 387.752 69.1998 388.114 69.446 388.602C69.696 389.087 69.821 389.705 69.821 390.455V396H68.4801V390.545C68.4801 389.852 68.3002 389.316 67.9403 388.938C67.5843 388.555 67.09 388.364 66.4574 388.364C66.018 388.364 65.6241 388.456 65.2756 388.642C64.9309 388.828 64.6581 389.098 64.4574 389.455C64.2604 389.811 64.1619 390.242 64.1619 390.75ZM76.0696 387.273V388.409H71.5469V387.273H76.0696ZM72.8651 385.182H74.206V393.5C74.206 393.879 74.2609 394.163 74.3707 394.352C74.4844 394.538 74.6283 394.663 74.8026 394.727C74.9806 394.788 75.1681 394.818 75.3651 394.818C75.5128 394.818 75.634 394.811 75.7287 394.795C75.8234 394.777 75.8991 394.761 75.956 394.75L76.2287 395.955C76.1378 395.989 76.0109 396.023 75.848 396.057C75.6851 396.095 75.4787 396.114 75.2287 396.114C74.8499 396.114 74.4787 396.032 74.1151 395.869C73.7552 395.706 73.456 395.458 73.2173 395.125C72.9825 394.792 72.8651 394.371 72.8651 393.864V385.182ZM82.7685 384.364H84.4503L88.4048 394.023H88.5412L92.4957 384.364H94.1776V396H92.8594V387.159H92.7457L89.1094 396H87.8366L84.2003 387.159H84.0866V396H82.7685V384.364ZM100.366 396.182C99.5786 396.182 98.8873 395.994 98.2926 395.619C97.7017 395.244 97.2396 394.72 96.9062 394.045C96.5767 393.371 96.4119 392.583 96.4119 391.682C96.4119 390.773 96.5767 389.979 96.9062 389.301C97.2396 388.623 97.7017 388.097 98.2926 387.722C98.8873 387.347 99.5786 387.159 100.366 387.159C101.154 387.159 101.844 387.347 102.435 387.722C103.029 388.097 103.491 388.623 103.821 389.301C104.154 389.979 104.321 390.773 104.321 391.682C104.321 392.583 104.154 393.371 103.821 394.045C103.491 394.72 103.029 395.244 102.435 395.619C101.844 395.994 101.154 396.182 100.366 396.182ZM100.366 394.977C100.965 394.977 101.457 394.824 101.844 394.517C102.23 394.21 102.516 393.807 102.702 393.307C102.887 392.807 102.98 392.265 102.98 391.682C102.98 391.098 102.887 390.555 102.702 390.051C102.516 389.547 102.23 389.14 101.844 388.83C101.457 388.519 100.965 388.364 100.366 388.364C99.768 388.364 99.2756 388.519 98.8892 388.83C98.5028 389.14 98.2169 389.547 98.0312 390.051C97.8456 390.555 97.7528 391.098 97.7528 391.682C97.7528 392.265 97.8456 392.807 98.0312 393.307C98.2169 393.807 98.5028 394.21 98.8892 394.517C99.2756 394.824 99.768 394.977 100.366 394.977ZM109.663 396.182C108.936 396.182 108.294 395.998 107.737 395.631C107.18 395.259 106.745 394.737 106.43 394.062C106.116 393.384 105.959 392.583 105.959 391.659C105.959 390.742 106.116 389.947 106.43 389.273C106.745 388.598 107.182 388.078 107.743 387.71C108.304 387.343 108.951 387.159 109.686 387.159C110.254 387.159 110.703 387.254 111.033 387.443C111.366 387.629 111.62 387.841 111.794 388.08C111.972 388.314 112.11 388.508 112.209 388.659H112.322V384.364H113.663V396H112.368V394.659H112.209C112.11 394.818 111.97 395.019 111.788 395.261C111.607 395.5 111.347 395.714 111.01 395.903C110.673 396.089 110.224 396.182 109.663 396.182ZM109.845 394.977C110.383 394.977 110.838 394.837 111.209 394.557C111.58 394.273 111.862 393.881 112.055 393.381C112.249 392.877 112.345 392.295 112.345 391.636C112.345 390.985 112.25 390.415 112.061 389.926C111.872 389.434 111.591 389.051 111.22 388.778C110.849 388.502 110.391 388.364 109.845 388.364C109.277 388.364 108.804 388.509 108.425 388.801C108.05 389.089 107.768 389.481 107.578 389.977C107.393 390.47 107.3 391.023 107.3 391.636C107.3 392.258 107.394 392.822 107.584 393.33C107.777 393.833 108.061 394.235 108.436 394.534C108.815 394.83 109.285 394.977 109.845 394.977ZM119.964 396.182C119.124 396.182 118.398 395.996 117.788 395.625C117.182 395.25 116.714 394.727 116.385 394.057C116.059 393.383 115.896 392.598 115.896 391.705C115.896 390.811 116.059 390.023 116.385 389.341C116.714 388.655 117.173 388.121 117.76 387.739C118.351 387.352 119.04 387.159 119.828 387.159C120.283 387.159 120.732 387.235 121.175 387.386C121.618 387.538 122.021 387.784 122.385 388.125C122.749 388.462 123.038 388.909 123.254 389.466C123.47 390.023 123.578 390.708 123.578 391.523V392.091H116.851V390.932H122.214C122.214 390.439 122.116 390 121.919 389.614C121.726 389.227 121.449 388.922 121.089 388.699C120.733 388.475 120.313 388.364 119.828 388.364C119.294 388.364 118.832 388.496 118.442 388.761C118.055 389.023 117.758 389.364 117.55 389.784C117.341 390.205 117.237 390.655 117.237 391.136V391.909C117.237 392.568 117.351 393.127 117.578 393.585C117.809 394.04 118.129 394.386 118.538 394.625C118.947 394.86 119.423 394.977 119.964 394.977C120.317 394.977 120.635 394.928 120.919 394.83C121.207 394.727 121.455 394.576 121.663 394.375C121.872 394.17 122.033 393.917 122.146 393.614L123.442 393.977C123.305 394.417 123.076 394.803 122.754 395.136C122.432 395.466 122.035 395.723 121.561 395.909C121.088 396.091 120.555 396.182 119.964 396.182Z" fill="#393939"/>
<line x1="271" y1="391" x2="283" y2="391" stroke="#C1C1C1" stroke-opacity="0.7" stroke-width="10" stroke-linecap="round"/>
<circle cx="266" cy="391" r="8" fill="#A4A4A4"/>
<rect x="21" y="224" width="289" height="55" rx="5" fill="#F7F8FA"/>
<path d="M87.4091 257V245.364H94.3864V246.614H88.8182V250.545H93.8636V251.795H88.8182V257H87.4091ZM99.5227 257.182C98.7348 257.182 98.0436 256.994 97.4489 256.619C96.858 256.244 96.3958 255.72 96.0625 255.045C95.733 254.371 95.5682 253.583 95.5682 252.682C95.5682 251.773 95.733 250.979 96.0625 250.301C96.3958 249.623 96.858 249.097 97.4489 248.722C98.0436 248.347 98.7348 248.159 99.5227 248.159C100.311 248.159 101 248.347 101.591 248.722C102.186 249.097 102.648 249.623 102.977 250.301C103.311 250.979 103.477 251.773 103.477 252.682C103.477 253.583 103.311 254.371 102.977 255.045C102.648 255.72 102.186 256.244 101.591 256.619C101 256.994 100.311 257.182 99.5227 257.182ZM99.5227 255.977C100.121 255.977 100.614 255.824 101 255.517C101.386 255.21 101.672 254.807 101.858 254.307C102.044 253.807 102.136 253.265 102.136 252.682C102.136 252.098 102.044 251.555 101.858 251.051C101.672 250.547 101.386 250.14 101 249.83C100.614 249.519 100.121 249.364 99.5227 249.364C98.9242 249.364 98.4318 249.519 98.0455 249.83C97.6591 250.14 97.3731 250.547 97.1875 251.051C97.0019 251.555 96.9091 252.098 96.9091 252.682C96.9091 253.265 97.0019 253.807 97.1875 254.307C97.3731 254.807 97.6591 255.21 98.0455 255.517C98.4318 255.824 98.9242 255.977 99.5227 255.977ZM106.865 251.75V257H105.524V248.273H106.82V249.636H106.933C107.138 249.193 107.448 248.837 107.865 248.568C108.282 248.295 108.82 248.159 109.479 248.159C110.07 248.159 110.587 248.28 111.03 248.523C111.473 248.761 111.818 249.125 112.064 249.614C112.31 250.098 112.433 250.712 112.433 251.455V257H111.092V251.545C111.092 250.86 110.914 250.326 110.558 249.943C110.202 249.557 109.714 249.364 109.092 249.364C108.664 249.364 108.282 249.456 107.945 249.642C107.611 249.828 107.348 250.098 107.155 250.455C106.962 250.811 106.865 251.242 106.865 251.75ZM118.679 248.273V249.409H114.156V248.273H118.679ZM115.474 246.182H116.815V254.5C116.815 254.879 116.87 255.163 116.98 255.352C117.094 255.538 117.238 255.663 117.412 255.727C117.59 255.788 117.777 255.818 117.974 255.818C118.122 255.818 118.243 255.811 118.338 255.795C118.433 255.777 118.509 255.761 118.565 255.75L118.838 256.955C118.747 256.989 118.62 257.023 118.457 257.057C118.295 257.095 118.088 257.114 117.838 257.114C117.459 257.114 117.088 257.032 116.724 256.869C116.365 256.706 116.065 256.458 115.827 256.125C115.592 255.792 115.474 255.371 115.474 254.864V246.182ZM131.741 248.273C131.673 247.697 131.397 247.25 130.912 246.932C130.427 246.614 129.832 246.455 129.128 246.455C128.613 246.455 128.162 246.538 127.776 246.705C127.393 246.871 127.094 247.1 126.878 247.392C126.666 247.684 126.56 248.015 126.56 248.386C126.56 248.697 126.634 248.964 126.781 249.188C126.933 249.407 127.126 249.591 127.361 249.739C127.596 249.883 127.842 250.002 128.099 250.097C128.357 250.187 128.594 250.261 128.81 250.318L129.991 250.636C130.295 250.716 130.632 250.826 131.003 250.966C131.378 251.106 131.736 251.297 132.077 251.54C132.421 251.778 132.705 252.085 132.929 252.46C133.152 252.835 133.264 253.295 133.264 253.841C133.264 254.47 133.099 255.038 132.77 255.545C132.444 256.053 131.967 256.456 131.338 256.756C130.713 257.055 129.954 257.205 129.06 257.205C128.226 257.205 127.505 257.07 126.895 256.801C126.289 256.532 125.812 256.157 125.463 255.676C125.118 255.195 124.923 254.636 124.878 254H126.332C126.37 254.439 126.518 254.803 126.776 255.091C127.037 255.375 127.366 255.587 127.764 255.727C128.166 255.864 128.598 255.932 129.06 255.932C129.598 255.932 130.08 255.845 130.509 255.67C130.937 255.492 131.276 255.246 131.526 254.932C131.776 254.614 131.901 254.242 131.901 253.818C131.901 253.432 131.793 253.117 131.577 252.875C131.361 252.633 131.077 252.436 130.724 252.284C130.372 252.133 129.991 252 129.582 251.886L128.151 251.477C127.241 251.216 126.522 250.843 125.991 250.358C125.461 249.873 125.196 249.239 125.196 248.455C125.196 247.803 125.372 247.235 125.724 246.75C126.08 246.261 126.558 245.883 127.156 245.614C127.759 245.341 128.431 245.205 129.173 245.205C129.923 245.205 130.59 245.339 131.173 245.608C131.757 245.873 132.219 246.237 132.56 246.699C132.904 247.161 133.086 247.686 133.105 248.273H131.741ZM139.058 257.182C138.217 257.182 137.492 256.996 136.882 256.625C136.276 256.25 135.808 255.727 135.479 255.057C135.153 254.383 134.99 253.598 134.99 252.705C134.99 251.811 135.153 251.023 135.479 250.341C135.808 249.655 136.267 249.121 136.854 248.739C137.445 248.352 138.134 248.159 138.922 248.159C139.376 248.159 139.825 248.235 140.268 248.386C140.712 248.538 141.115 248.784 141.479 249.125C141.842 249.462 142.132 249.909 142.348 250.466C142.564 251.023 142.672 251.708 142.672 252.523V253.091H135.945V251.932H141.308C141.308 251.439 141.21 251 141.013 250.614C140.82 250.227 140.543 249.922 140.183 249.699C139.827 249.475 139.407 249.364 138.922 249.364C138.388 249.364 137.926 249.496 137.536 249.761C137.149 250.023 136.852 250.364 136.643 250.784C136.435 251.205 136.331 251.655 136.331 252.136V252.909C136.331 253.568 136.445 254.127 136.672 254.585C136.903 255.04 137.223 255.386 137.632 255.625C138.041 255.86 138.517 255.977 139.058 255.977C139.411 255.977 139.729 255.928 140.013 255.83C140.301 255.727 140.549 255.576 140.757 255.375C140.965 255.17 141.126 254.917 141.24 254.614L142.536 254.977C142.399 255.417 142.17 255.803 141.848 256.136C141.526 256.466 141.128 256.723 140.655 256.909C140.181 257.091 139.649 257.182 139.058 257.182ZM148.507 248.273V249.409H143.984V248.273H148.507ZM145.303 246.182H146.643V254.5C146.643 254.879 146.698 255.163 146.808 255.352C146.922 255.538 147.066 255.663 147.24 255.727C147.418 255.788 147.606 255.818 147.803 255.818C147.95 255.818 148.071 255.811 148.166 255.795C148.261 255.777 148.337 255.761 148.393 255.75L148.666 256.955C148.575 256.989 148.448 257.023 148.286 257.057C148.123 257.095 147.916 257.114 147.666 257.114C147.287 257.114 146.916 257.032 146.553 256.869C146.193 256.706 145.893 256.458 145.655 256.125C145.42 255.792 145.303 255.371 145.303 254.864V246.182ZM154.32 248.273V249.409H149.797V248.273H154.32ZM151.115 246.182H152.456V254.5C152.456 254.879 152.511 255.163 152.621 255.352C152.734 255.538 152.878 255.663 153.053 255.727C153.231 255.788 153.418 255.818 153.615 255.818C153.763 255.818 153.884 255.811 153.979 255.795C154.073 255.777 154.149 255.761 154.206 255.75L154.479 256.955C154.388 256.989 154.261 257.023 154.098 257.057C153.935 257.095 153.729 257.114 153.479 257.114C153.1 257.114 152.729 257.032 152.365 256.869C152.005 256.706 151.706 256.458 151.467 256.125C151.232 255.792 151.115 255.371 151.115 254.864V246.182ZM156.337 257V248.273H157.678V257H156.337ZM157.018 246.818C156.757 246.818 156.532 246.729 156.342 246.551C156.157 246.373 156.064 246.159 156.064 245.909C156.064 245.659 156.157 245.445 156.342 245.267C156.532 245.089 156.757 245 157.018 245C157.28 245 157.503 245.089 157.689 245.267C157.878 245.445 157.973 245.659 157.973 245.909C157.973 246.159 157.878 246.373 157.689 246.551C157.503 246.729 157.28 246.818 157.018 246.818ZM161.474 251.75V257H160.134V248.273H161.429V249.636H161.543C161.747 249.193 162.058 248.837 162.474 248.568C162.891 248.295 163.429 248.159 164.088 248.159C164.679 248.159 165.196 248.28 165.639 248.523C166.082 248.761 166.427 249.125 166.673 249.614C166.92 250.098 167.043 250.712 167.043 251.455V257H165.702V251.545C165.702 250.86 165.524 250.326 165.168 249.943C164.812 249.557 164.323 249.364 163.702 249.364C163.274 249.364 162.891 249.456 162.554 249.642C162.221 249.828 161.957 250.098 161.764 250.455C161.571 250.811 161.474 251.242 161.474 251.75ZM173.016 260.455C172.368 260.455 171.811 260.371 171.345 260.205C170.879 260.042 170.491 259.826 170.18 259.557C169.874 259.292 169.629 259.008 169.447 258.705L170.516 257.955C170.637 258.114 170.79 258.295 170.976 258.5C171.161 258.708 171.415 258.888 171.737 259.04C172.063 259.195 172.489 259.273 173.016 259.273C173.72 259.273 174.302 259.102 174.76 258.761C175.218 258.42 175.447 257.886 175.447 257.159V255.386H175.334C175.235 255.545 175.095 255.742 174.913 255.977C174.735 256.208 174.478 256.415 174.141 256.597C173.807 256.775 173.357 256.864 172.788 256.864C172.084 256.864 171.451 256.697 170.891 256.364C170.334 256.03 169.893 255.545 169.567 254.909C169.245 254.273 169.084 253.5 169.084 252.591C169.084 251.697 169.241 250.919 169.555 250.256C169.87 249.589 170.307 249.074 170.868 248.71C171.429 248.343 172.076 248.159 172.811 248.159C173.379 248.159 173.83 248.254 174.163 248.443C174.5 248.629 174.758 248.841 174.936 249.08C175.118 249.314 175.258 249.508 175.357 249.659H175.493V248.273H176.788V257.25C176.788 258 176.618 258.61 176.277 259.08C175.94 259.553 175.485 259.9 174.913 260.119C174.345 260.343 173.713 260.455 173.016 260.455ZM172.97 255.659C173.508 255.659 173.963 255.536 174.334 255.29C174.705 255.044 174.987 254.689 175.18 254.227C175.374 253.765 175.47 253.212 175.47 252.568C175.47 251.939 175.375 251.384 175.186 250.903C174.997 250.422 174.716 250.045 174.345 249.773C173.974 249.5 173.516 249.364 172.97 249.364C172.402 249.364 171.929 249.508 171.55 249.795C171.175 250.083 170.893 250.47 170.703 250.955C170.518 251.439 170.425 251.977 170.425 252.568C170.425 253.174 170.519 253.71 170.709 254.176C170.902 254.638 171.186 255.002 171.561 255.267C171.94 255.528 172.41 255.659 172.97 255.659ZM185.425 250.227L184.22 250.568C184.144 250.367 184.033 250.172 183.885 249.983C183.741 249.79 183.544 249.631 183.294 249.506C183.044 249.381 182.724 249.318 182.334 249.318C181.8 249.318 181.355 249.441 180.999 249.688C180.646 249.93 180.47 250.239 180.47 250.614C180.47 250.947 180.591 251.21 180.834 251.403C181.076 251.597 181.455 251.758 181.97 251.886L183.266 252.205C184.046 252.394 184.627 252.684 185.01 253.074C185.393 253.46 185.584 253.958 185.584 254.568C185.584 255.068 185.44 255.515 185.152 255.909C184.868 256.303 184.47 256.614 183.959 256.841C183.447 257.068 182.853 257.182 182.175 257.182C181.285 257.182 180.548 256.989 179.964 256.602C179.381 256.216 179.012 255.652 178.857 254.909L180.129 254.591C180.25 255.061 180.48 255.413 180.817 255.648C181.158 255.883 181.603 256 182.152 256C182.777 256 183.273 255.867 183.641 255.602C184.012 255.333 184.197 255.011 184.197 254.636C184.197 254.333 184.091 254.08 183.879 253.875C183.667 253.667 183.341 253.511 182.902 253.409L181.447 253.068C180.648 252.879 180.061 252.585 179.686 252.188C179.315 251.786 179.129 251.284 179.129 250.682C179.129 250.189 179.268 249.754 179.544 249.375C179.824 248.996 180.205 248.699 180.686 248.483C181.171 248.267 181.72 248.159 182.334 248.159C183.197 248.159 183.875 248.348 184.368 248.727C184.864 249.106 185.216 249.606 185.425 250.227Z" fill="#868686"/>
<circle cx="54" cy="252" r="19" fill="#E8F0F5"/>
<path d="M50 242.75H47C45.7574 242.75 44.75 243.757 44.75 245V248C44.75 249.243 45.7574 250.25 47 250.25H50C51.2426 250.25 52.25 249.243 52.25 248V245C52.25 243.757 51.2426 242.75 50 242.75Z" stroke="#868686" stroke-width="1.5"/>
<path d="M61 242.75H58C56.7574 242.75 55.75 243.757 55.75 245V248C55.75 249.243 56.7574 250.25 58 250.25H61C62.2426 250.25 63.25 249.243 63.25 248V245C63.25 243.757 62.2426 242.75 61 242.75Z" stroke="#868686" stroke-width="1.5"/>
<path d="M61 253.75H58C56.7574 253.75 55.75 254.757 55.75 256V259C55.75 260.243 56.7574 261.25 58 261.25H61C62.2426 261.25 63.25 260.243 63.25 259V256C63.25 254.757 62.2426 253.75 61 253.75Z" stroke="#868686" stroke-width="1.5"/>
<path d="M50 253.75H47C45.7574 253.75 44.75 254.757 44.75 256V259C44.75 260.243 45.7574 261.25 47 261.25H50C51.2426 261.25 52.25 260.243 52.25 259V256C52.25 254.757 51.2426 253.75 50 253.75Z" stroke="#868686" stroke-width="1.5"/>
<path d="M21 159C21 156.239 23.2386 154 26 154H49.5504H179.775H305C307.761 154 310 156.239 310 159V204C310 206.761 307.761 209 305 209H26C23.2386 209 21 206.761 21 204V159Z" fill="#F7F8FA"/>
<path d="M95.3636 179C95.2386 178.617 95.0739 178.275 94.8693 177.972C94.6686 177.665 94.428 177.403 94.1477 177.188C93.8712 176.972 93.5568 176.807 93.2045 176.693C92.8523 176.58 92.4659 176.523 92.0455 176.523C91.3561 176.523 90.7292 176.701 90.1648 177.057C89.6004 177.413 89.1515 177.938 88.8182 178.631C88.4848 179.324 88.3182 180.174 88.3182 181.182C88.3182 182.189 88.4867 183.04 88.8239 183.733C89.161 184.426 89.6174 184.951 90.1932 185.307C90.7689 185.663 91.4167 185.841 92.1364 185.841C92.803 185.841 93.3902 185.699 93.8977 185.415C94.4091 185.127 94.8068 184.722 95.0909 184.199C95.3788 183.672 95.5227 183.053 95.5227 182.341L95.9545 182.432H92.4545V181.182H96.8864V182.432C96.8864 183.39 96.6818 184.223 96.2727 184.932C95.8674 185.64 95.3068 186.189 94.5909 186.58C93.8788 186.966 93.0606 187.159 92.1364 187.159C91.1061 187.159 90.2008 186.917 89.4205 186.432C88.6439 185.947 88.0379 185.258 87.6023 184.364C87.1705 183.47 86.9545 182.409 86.9545 181.182C86.9545 180.261 87.0777 179.434 87.3239 178.699C87.5739 177.96 87.9261 177.331 88.3807 176.812C88.8352 176.294 89.3731 175.896 89.9943 175.619C90.6155 175.343 91.2992 175.205 92.0455 175.205C92.6591 175.205 93.2311 175.297 93.7614 175.483C94.2955 175.665 94.7708 175.924 95.1875 176.261C95.608 176.595 95.9583 176.994 96.2386 177.46C96.5189 177.922 96.7121 178.436 96.8182 179H95.3636ZM102.777 187.182C101.936 187.182 101.211 186.996 100.601 186.625C99.9948 186.25 99.527 185.727 99.1974 185.057C98.8717 184.383 98.7088 183.598 98.7088 182.705C98.7088 181.811 98.8717 181.023 99.1974 180.341C99.527 179.655 99.9853 179.121 100.572 178.739C101.163 178.352 101.853 178.159 102.641 178.159C103.095 178.159 103.544 178.235 103.987 178.386C104.43 178.538 104.834 178.784 105.197 179.125C105.561 179.462 105.851 179.909 106.067 180.466C106.283 181.023 106.391 181.708 106.391 182.523V183.091H99.6634V181.932H105.027C105.027 181.439 104.929 181 104.732 180.614C104.538 180.227 104.262 179.922 103.902 179.699C103.546 179.475 103.125 179.364 102.641 179.364C102.107 179.364 101.644 179.496 101.254 179.761C100.868 180.023 100.571 180.364 100.362 180.784C100.154 181.205 100.05 181.655 100.05 182.136V182.909C100.05 183.568 100.163 184.127 100.391 184.585C100.622 185.04 100.942 185.386 101.351 185.625C101.76 185.86 102.235 185.977 102.777 185.977C103.129 185.977 103.447 185.928 103.732 185.83C104.019 185.727 104.268 185.576 104.476 185.375C104.684 185.17 104.845 184.917 104.959 184.614L106.254 184.977C106.118 185.417 105.889 185.803 105.567 186.136C105.245 186.466 104.847 186.723 104.374 186.909C103.9 187.091 103.368 187.182 102.777 187.182ZM109.771 181.75V187H108.43V178.273H109.726V179.636H109.839C110.044 179.193 110.355 178.837 110.771 178.568C111.188 178.295 111.726 178.159 112.385 178.159C112.976 178.159 113.493 178.28 113.936 178.523C114.379 178.761 114.724 179.125 114.97 179.614C115.216 180.098 115.339 180.712 115.339 181.455V187H113.999V181.545C113.999 180.86 113.821 180.326 113.464 179.943C113.108 179.557 112.62 179.364 111.999 179.364C111.571 179.364 111.188 179.456 110.851 179.642C110.518 179.828 110.254 180.098 110.061 180.455C109.868 180.811 109.771 181.242 109.771 181.75ZM121.449 187.182C120.608 187.182 119.883 186.996 119.273 186.625C118.667 186.25 118.199 185.727 117.869 185.057C117.544 184.383 117.381 183.598 117.381 182.705C117.381 181.811 117.544 181.023 117.869 180.341C118.199 179.655 118.657 179.121 119.244 178.739C119.835 178.352 120.525 178.159 121.312 178.159C121.767 178.159 122.216 178.235 122.659 178.386C123.102 178.538 123.506 178.784 123.869 179.125C124.233 179.462 124.523 179.909 124.739 180.466C124.955 181.023 125.062 181.708 125.062 182.523V183.091H118.335V181.932H123.699C123.699 181.439 123.6 181 123.403 180.614C123.21 180.227 122.934 179.922 122.574 179.699C122.218 179.475 121.797 179.364 121.312 179.364C120.778 179.364 120.316 179.496 119.926 179.761C119.54 180.023 119.242 180.364 119.034 180.784C118.826 181.205 118.722 181.655 118.722 182.136V182.909C118.722 183.568 118.835 184.127 119.062 184.585C119.294 185.04 119.614 185.386 120.023 185.625C120.432 185.86 120.907 185.977 121.449 185.977C121.801 185.977 122.119 185.928 122.403 185.83C122.691 185.727 122.939 185.576 123.148 185.375C123.356 185.17 123.517 184.917 123.631 184.614L124.926 184.977C124.79 185.417 124.561 185.803 124.239 186.136C123.917 186.466 123.519 186.723 123.045 186.909C122.572 187.091 122.04 187.182 121.449 187.182ZM127.102 187V178.273H128.398V179.591H128.489C128.648 179.159 128.936 178.809 129.352 178.54C129.769 178.271 130.239 178.136 130.761 178.136C130.86 178.136 130.983 178.138 131.131 178.142C131.278 178.146 131.39 178.152 131.466 178.159V179.523C131.42 179.511 131.316 179.494 131.153 179.472C130.994 179.445 130.826 179.432 130.648 179.432C130.223 179.432 129.845 179.521 129.511 179.699C129.182 179.873 128.92 180.116 128.727 180.426C128.538 180.733 128.443 181.083 128.443 181.477V187H127.102ZM135.624 187.205C135.071 187.205 134.569 187.1 134.118 186.892C133.667 186.68 133.309 186.375 133.044 185.977C132.779 185.576 132.646 185.091 132.646 184.523C132.646 184.023 132.745 183.617 132.942 183.307C133.139 182.992 133.402 182.746 133.732 182.568C134.061 182.39 134.425 182.258 134.822 182.17C135.224 182.08 135.627 182.008 136.033 181.955C136.563 181.886 136.993 181.835 137.322 181.801C137.656 181.763 137.898 181.701 138.05 181.614C138.205 181.527 138.283 181.375 138.283 181.159V181.114C138.283 180.553 138.129 180.117 137.822 179.807C137.519 179.496 137.059 179.341 136.442 179.341C135.802 179.341 135.3 179.481 134.936 179.761C134.572 180.042 134.317 180.341 134.169 180.659L132.896 180.205C133.124 179.674 133.427 179.261 133.805 178.966C134.188 178.667 134.605 178.458 135.055 178.341C135.51 178.22 135.957 178.159 136.396 178.159C136.677 178.159 136.999 178.193 137.362 178.261C137.73 178.326 138.084 178.46 138.425 178.665C138.769 178.869 139.055 179.178 139.283 179.591C139.51 180.004 139.624 180.557 139.624 181.25V187H138.283V185.818H138.214C138.124 186.008 137.972 186.21 137.76 186.426C137.548 186.642 137.266 186.826 136.913 186.977C136.561 187.129 136.131 187.205 135.624 187.205ZM135.828 186C136.358 186 136.805 185.896 137.169 185.688C137.536 185.479 137.813 185.21 137.999 184.881C138.188 184.551 138.283 184.205 138.283 183.841V182.614C138.226 182.682 138.101 182.744 137.908 182.801C137.718 182.854 137.499 182.902 137.249 182.943C137.002 182.981 136.762 183.015 136.527 183.045C136.296 183.072 136.108 183.095 135.964 183.114C135.616 183.159 135.29 183.233 134.987 183.335C134.688 183.434 134.446 183.583 134.26 183.784C134.078 183.981 133.987 184.25 133.987 184.591C133.987 185.057 134.16 185.409 134.504 185.648C134.853 185.883 135.294 186 135.828 186ZM143.412 175.364V187H142.071V175.364H143.412ZM156.913 178.273C156.845 177.697 156.569 177.25 156.084 176.932C155.599 176.614 155.004 176.455 154.3 176.455C153.785 176.455 153.334 176.538 152.947 176.705C152.565 176.871 152.266 177.1 152.05 177.392C151.838 177.684 151.732 178.015 151.732 178.386C151.732 178.697 151.805 178.964 151.953 179.188C152.105 179.407 152.298 179.591 152.533 179.739C152.768 179.883 153.014 180.002 153.271 180.097C153.529 180.187 153.766 180.261 153.982 180.318L155.163 180.636C155.466 180.716 155.804 180.826 156.175 180.966C156.55 181.106 156.908 181.297 157.249 181.54C157.593 181.778 157.877 182.085 158.101 182.46C158.324 182.835 158.436 183.295 158.436 183.841C158.436 184.47 158.271 185.038 157.942 185.545C157.616 186.053 157.139 186.456 156.51 186.756C155.885 187.055 155.125 187.205 154.232 187.205C153.398 187.205 152.677 187.07 152.067 186.801C151.461 186.532 150.983 186.157 150.635 185.676C150.29 185.195 150.095 184.636 150.05 184H151.504C151.542 184.439 151.69 184.803 151.947 185.091C152.209 185.375 152.538 185.587 152.936 185.727C153.338 185.864 153.769 185.932 154.232 185.932C154.769 185.932 155.252 185.845 155.68 185.67C156.108 185.492 156.447 185.246 156.697 184.932C156.947 184.614 157.072 184.242 157.072 183.818C157.072 183.432 156.964 183.117 156.749 182.875C156.533 182.633 156.249 182.436 155.896 182.284C155.544 182.133 155.163 182 154.754 181.886L153.322 181.477C152.413 181.216 151.694 180.843 151.163 180.358C150.633 179.873 150.368 179.239 150.368 178.455C150.368 177.803 150.544 177.235 150.896 176.75C151.252 176.261 151.73 175.883 152.328 175.614C152.93 175.341 153.603 175.205 154.345 175.205C155.095 175.205 155.762 175.339 156.345 175.608C156.929 175.873 157.391 176.237 157.732 176.699C158.076 177.161 158.258 177.686 158.277 178.273H156.913ZM164.23 187.182C163.389 187.182 162.664 186.996 162.054 186.625C161.448 186.25 160.98 185.727 160.651 185.057C160.325 184.383 160.162 183.598 160.162 182.705C160.162 181.811 160.325 181.023 160.651 180.341C160.98 179.655 161.438 179.121 162.026 178.739C162.616 178.352 163.306 178.159 164.094 178.159C164.548 178.159 164.997 178.235 165.44 178.386C165.884 178.538 166.287 178.784 166.651 179.125C167.014 179.462 167.304 179.909 167.52 180.466C167.736 181.023 167.844 181.708 167.844 182.523V183.091H161.116V181.932H166.48C166.48 181.439 166.382 181 166.185 180.614C165.991 180.227 165.715 179.922 165.355 179.699C164.999 179.475 164.579 179.364 164.094 179.364C163.56 179.364 163.098 179.496 162.707 179.761C162.321 180.023 162.024 180.364 161.815 180.784C161.607 181.205 161.503 181.655 161.503 182.136V182.909C161.503 183.568 161.616 184.127 161.844 184.585C162.075 185.04 162.395 185.386 162.804 185.625C163.213 185.86 163.688 185.977 164.23 185.977C164.582 185.977 164.901 185.928 165.185 185.83C165.473 185.727 165.721 185.576 165.929 185.375C166.137 185.17 166.298 184.917 166.412 184.614L167.707 184.977C167.571 185.417 167.342 185.803 167.02 186.136C166.698 186.466 166.3 186.723 165.827 186.909C165.353 187.091 164.821 187.182 164.23 187.182ZM173.679 178.273V179.409H169.156V178.273H173.679ZM170.474 176.182H171.815V184.5C171.815 184.879 171.87 185.163 171.98 185.352C172.094 185.538 172.238 185.663 172.412 185.727C172.59 185.788 172.777 185.818 172.974 185.818C173.122 185.818 173.243 185.811 173.338 185.795C173.433 185.777 173.509 185.761 173.565 185.75L173.838 186.955C173.747 186.989 173.62 187.023 173.457 187.057C173.295 187.095 173.088 187.114 172.838 187.114C172.459 187.114 172.088 187.032 171.724 186.869C171.365 186.706 171.065 186.458 170.827 186.125C170.592 185.792 170.474 185.371 170.474 184.864V176.182ZM179.491 178.273V179.409H174.969V178.273H179.491ZM176.287 176.182H177.628V184.5C177.628 184.879 177.683 185.163 177.793 185.352C177.906 185.538 178.05 185.663 178.224 185.727C178.402 185.788 178.59 185.818 178.787 185.818C178.935 185.818 179.056 185.811 179.151 185.795C179.245 185.777 179.321 185.761 179.378 185.75L179.651 186.955C179.56 186.989 179.433 187.023 179.27 187.057C179.107 187.095 178.901 187.114 178.651 187.114C178.272 187.114 177.901 187.032 177.537 186.869C177.177 186.706 176.878 186.458 176.639 186.125C176.404 185.792 176.287 185.371 176.287 184.864V176.182ZM181.509 187V178.273H182.849V187H181.509ZM182.19 176.818C181.929 176.818 181.704 176.729 181.514 176.551C181.329 176.373 181.236 176.159 181.236 175.909C181.236 175.659 181.329 175.445 181.514 175.267C181.704 175.089 181.929 175 182.19 175C182.452 175 182.675 175.089 182.861 175.267C183.05 175.445 183.145 175.659 183.145 175.909C183.145 176.159 183.05 176.373 182.861 176.551C182.675 176.729 182.452 176.818 182.19 176.818ZM186.646 181.75V187H185.305V178.273H186.601V179.636H186.714C186.919 179.193 187.23 178.837 187.646 178.568C188.063 178.295 188.601 178.159 189.26 178.159C189.851 178.159 190.368 178.28 190.811 178.523C191.254 178.761 191.599 179.125 191.845 179.614C192.091 180.098 192.214 180.712 192.214 181.455V187H190.874V181.545C190.874 180.86 190.696 180.326 190.339 179.943C189.983 179.557 189.495 179.364 188.874 179.364C188.446 179.364 188.063 179.456 187.726 179.642C187.393 179.828 187.129 180.098 186.936 180.455C186.743 180.811 186.646 181.242 186.646 181.75ZM198.188 190.455C197.54 190.455 196.983 190.371 196.517 190.205C196.051 190.042 195.663 189.826 195.352 189.557C195.045 189.292 194.801 189.008 194.619 188.705L195.688 187.955C195.809 188.114 195.962 188.295 196.148 188.5C196.333 188.708 196.587 188.888 196.909 189.04C197.235 189.195 197.661 189.273 198.188 189.273C198.892 189.273 199.473 189.102 199.932 188.761C200.39 188.42 200.619 187.886 200.619 187.159V185.386H200.506C200.407 185.545 200.267 185.742 200.085 185.977C199.907 186.208 199.65 186.415 199.312 186.597C198.979 186.775 198.528 186.864 197.96 186.864C197.256 186.864 196.623 186.697 196.062 186.364C195.506 186.03 195.064 185.545 194.739 184.909C194.417 184.273 194.256 183.5 194.256 182.591C194.256 181.697 194.413 180.919 194.727 180.256C195.042 179.589 195.479 179.074 196.04 178.71C196.6 178.343 197.248 178.159 197.983 178.159C198.551 178.159 199.002 178.254 199.335 178.443C199.672 178.629 199.93 178.841 200.108 179.08C200.29 179.314 200.43 179.508 200.528 179.659H200.665V178.273H201.96V187.25C201.96 188 201.79 188.61 201.449 189.08C201.112 189.553 200.657 189.9 200.085 190.119C199.517 190.343 198.884 190.455 198.188 190.455ZM198.142 185.659C198.68 185.659 199.134 185.536 199.506 185.29C199.877 185.044 200.159 184.689 200.352 184.227C200.545 183.765 200.642 183.212 200.642 182.568C200.642 181.939 200.547 181.384 200.358 180.903C200.169 180.422 199.888 180.045 199.517 179.773C199.146 179.5 198.688 179.364 198.142 179.364C197.574 179.364 197.1 179.508 196.722 179.795C196.347 180.083 196.064 180.47 195.875 180.955C195.689 181.439 195.597 181.977 195.597 182.568C195.597 183.174 195.691 183.71 195.881 184.176C196.074 184.638 196.358 185.002 196.733 185.267C197.112 185.528 197.581 185.659 198.142 185.659ZM210.597 180.227L209.392 180.568C209.316 180.367 209.205 180.172 209.057 179.983C208.913 179.79 208.716 179.631 208.466 179.506C208.216 179.381 207.896 179.318 207.506 179.318C206.972 179.318 206.527 179.441 206.17 179.688C205.818 179.93 205.642 180.239 205.642 180.614C205.642 180.947 205.763 181.21 206.006 181.403C206.248 181.597 206.627 181.758 207.142 181.886L208.438 182.205C209.218 182.394 209.799 182.684 210.182 183.074C210.564 183.46 210.756 183.958 210.756 184.568C210.756 185.068 210.612 185.515 210.324 185.909C210.04 186.303 209.642 186.614 209.131 186.841C208.619 187.068 208.025 187.182 207.347 187.182C206.456 187.182 205.72 186.989 205.136 186.602C204.553 186.216 204.184 185.652 204.028 184.909L205.301 184.591C205.422 185.061 205.652 185.413 205.989 185.648C206.33 185.883 206.775 186 207.324 186C207.949 186 208.445 185.867 208.812 185.602C209.184 185.333 209.369 185.011 209.369 184.636C209.369 184.333 209.263 184.08 209.051 183.875C208.839 183.667 208.513 183.511 208.074 183.409L206.619 183.068C205.82 182.879 205.233 182.585 204.858 182.188C204.487 181.786 204.301 181.284 204.301 180.682C204.301 180.189 204.439 179.754 204.716 179.375C204.996 178.996 205.377 178.699 205.858 178.483C206.343 178.267 206.892 178.159 207.506 178.159C208.369 178.159 209.047 178.348 209.54 178.727C210.036 179.106 210.388 179.606 210.597 180.227Z" fill="#868686"/>
<circle cx="54" cy="182" r="19" fill="#E8F0F5"/>
<path d="M49 177H59M61 181H47H61ZM61 181C61.5304 181 62.0391 181.211 62.4142 181.586C62.7893 181.961 63 182.47 63 183V189C63 189.53 62.7893 190.039 62.4142 190.414C62.0391 190.789 61.5304 191 61 191H47C46.4696 191 45.9609 190.789 45.5858 190.414C45.2107 190.039 45 189.53 45 189V183C45 182.47 45.2107 181.961 45.5858 181.586C45.9609 181.211 46.4696 181 47 181H61ZM61 181V179C61 178.47 60.7893 177.961 60.4142 177.586C60.0391 177.211 59.5304 177 59 177L61 181ZM47 181V179C47 178.47 47.2107 177.961 47.5858 177.586C47.9609 177.211 48.4696 177 49 177L47 181ZM49 177V175C49 174.47 49.2107 173.961 49.5858 173.586C49.9609 173.211 50.4696 173 51 173H57C57.5304 173 58.0391 173.211 58.4142 173.586C58.7893 173.961 59 174.47 59 175V177H49Z" stroke="#868686" stroke-width="1.5" stroke-linecap="round" stroke-linejoin="round"/>
<path d="M21 89C21 86.2386 23.2386 84 26 84H49.5504H179.775H305C307.761 84 310 86.2386 310 89V134C310 136.761 307.761 139 305 139H26C23.2386 139 21 136.761 21 134V89Z" fill="#F7F8FA"/>
<path d="M87.4091 117V105.364H88.8182V115.75H94.2273V117H87.4091ZM98.7955 117.205C98.2424 117.205 97.7405 117.1 97.2898 116.892C96.839 116.68 96.4811 116.375 96.2159 115.977C95.9508 115.576 95.8182 115.091 95.8182 114.523C95.8182 114.023 95.9167 113.617 96.1136 113.307C96.3106 112.992 96.5739 112.746 96.9034 112.568C97.233 112.39 97.5966 112.258 97.9943 112.17C98.3958 112.08 98.7992 112.008 99.2045 111.955C99.7348 111.886 100.165 111.835 100.494 111.801C100.828 111.763 101.07 111.701 101.222 111.614C101.377 111.527 101.455 111.375 101.455 111.159V111.114C101.455 110.553 101.301 110.117 100.994 109.807C100.691 109.496 100.231 109.341 99.6136 109.341C98.9735 109.341 98.4716 109.481 98.108 109.761C97.7443 110.042 97.4886 110.341 97.3409 110.659L96.0682 110.205C96.2955 109.674 96.5985 109.261 96.9773 108.966C97.3598 108.667 97.7765 108.458 98.2273 108.341C98.6818 108.22 99.1288 108.159 99.5682 108.159C99.8485 108.159 100.17 108.193 100.534 108.261C100.902 108.326 101.256 108.46 101.597 108.665C101.941 108.869 102.227 109.178 102.455 109.591C102.682 110.004 102.795 110.557 102.795 111.25V117H101.455V115.818H101.386C101.295 116.008 101.144 116.21 100.932 116.426C100.72 116.642 100.438 116.826 100.085 116.977C99.733 117.129 99.303 117.205 98.7955 117.205ZM99 116C99.5303 116 99.9773 115.896 100.341 115.688C100.708 115.479 100.985 115.21 101.17 114.881C101.36 114.551 101.455 114.205 101.455 113.841V112.614C101.398 112.682 101.273 112.744 101.08 112.801C100.89 112.854 100.67 112.902 100.42 112.943C100.174 112.981 99.9337 113.015 99.6989 113.045C99.4678 113.072 99.2803 113.095 99.1364 113.114C98.7879 113.159 98.4621 113.233 98.1591 113.335C97.8598 113.434 97.6174 113.583 97.4318 113.784C97.25 113.981 97.1591 114.25 97.1591 114.591C97.1591 115.057 97.3314 115.409 97.6761 115.648C98.0246 115.883 98.4659 116 99 116ZM106.584 111.75V117H105.243V108.273H106.538V109.636H106.652C106.857 109.193 107.167 108.837 107.584 108.568C108 108.295 108.538 108.159 109.197 108.159C109.788 108.159 110.305 108.28 110.749 108.523C111.192 108.761 111.536 109.125 111.783 109.614C112.029 110.098 112.152 110.712 112.152 111.455V117H110.811V111.545C110.811 110.86 110.633 110.326 110.277 109.943C109.921 109.557 109.432 109.364 108.811 109.364C108.383 109.364 108 109.456 107.663 109.642C107.33 109.828 107.067 110.098 106.874 110.455C106.68 110.811 106.584 111.242 106.584 111.75ZM118.125 120.455C117.477 120.455 116.92 120.371 116.455 120.205C115.989 120.042 115.6 119.826 115.29 119.557C114.983 119.292 114.739 119.008 114.557 118.705L115.625 117.955C115.746 118.114 115.9 118.295 116.085 118.5C116.271 118.708 116.525 118.888 116.847 119.04C117.172 119.195 117.598 119.273 118.125 119.273C118.83 119.273 119.411 119.102 119.869 118.761C120.328 118.42 120.557 117.886 120.557 117.159V115.386H120.443C120.345 115.545 120.205 115.742 120.023 115.977C119.845 116.208 119.587 116.415 119.25 116.597C118.917 116.775 118.466 116.864 117.898 116.864C117.193 116.864 116.561 116.697 116 116.364C115.443 116.03 115.002 115.545 114.676 114.909C114.354 114.273 114.193 113.5 114.193 112.591C114.193 111.697 114.35 110.919 114.665 110.256C114.979 109.589 115.417 109.074 115.977 108.71C116.538 108.343 117.186 108.159 117.92 108.159C118.489 108.159 118.939 108.254 119.273 108.443C119.61 108.629 119.867 108.841 120.045 109.08C120.227 109.314 120.367 109.508 120.466 109.659H120.602V108.273H121.898V117.25C121.898 118 121.727 118.61 121.386 119.08C121.049 119.553 120.595 119.9 120.023 120.119C119.455 120.343 118.822 120.455 118.125 120.455ZM118.08 115.659C118.617 115.659 119.072 115.536 119.443 115.29C119.814 115.044 120.097 114.689 120.29 114.227C120.483 113.765 120.58 113.212 120.58 112.568C120.58 111.939 120.485 111.384 120.295 110.903C120.106 110.422 119.826 110.045 119.455 109.773C119.083 109.5 118.625 109.364 118.08 109.364C117.511 109.364 117.038 109.508 116.659 109.795C116.284 110.083 116.002 110.47 115.812 110.955C115.627 111.439 115.534 111.977 115.534 112.568C115.534 113.174 115.629 113.71 115.818 114.176C116.011 114.638 116.295 115.002 116.67 115.267C117.049 115.528 117.519 115.659 118.08 115.659ZM129.852 113.432V108.273H131.193V117H129.852V115.523H129.761C129.557 115.966 129.239 116.343 128.807 116.653C128.375 116.96 127.83 117.114 127.17 117.114C126.625 117.114 126.14 116.994 125.716 116.756C125.292 116.513 124.958 116.15 124.716 115.665C124.473 115.176 124.352 114.561 124.352 113.818V108.273H125.693V113.727C125.693 114.364 125.871 114.871 126.227 115.25C126.587 115.629 127.045 115.818 127.602 115.818C127.936 115.818 128.275 115.733 128.619 115.562C128.968 115.392 129.259 115.131 129.494 114.778C129.733 114.426 129.852 113.977 129.852 113.432ZM136.217 117.205C135.664 117.205 135.162 117.1 134.712 116.892C134.261 116.68 133.903 116.375 133.638 115.977C133.373 115.576 133.24 115.091 133.24 114.523C133.24 114.023 133.339 113.617 133.536 113.307C133.732 112.992 133.996 112.746 134.325 112.568C134.655 112.39 135.018 112.258 135.416 112.17C135.818 112.08 136.221 112.008 136.626 111.955C137.157 111.886 137.587 111.835 137.916 111.801C138.25 111.763 138.492 111.701 138.643 111.614C138.799 111.527 138.876 111.375 138.876 111.159V111.114C138.876 110.553 138.723 110.117 138.416 109.807C138.113 109.496 137.653 109.341 137.036 109.341C136.395 109.341 135.893 109.481 135.53 109.761C135.166 110.042 134.911 110.341 134.763 110.659L133.49 110.205C133.717 109.674 134.02 109.261 134.399 108.966C134.782 108.667 135.198 108.458 135.649 108.341C136.104 108.22 136.551 108.159 136.99 108.159C137.27 108.159 137.592 108.193 137.956 108.261C138.323 108.326 138.678 108.46 139.018 108.665C139.363 108.869 139.649 109.178 139.876 109.591C140.104 110.004 140.217 110.557 140.217 111.25V117H138.876V115.818H138.808C138.717 116.008 138.566 116.21 138.354 116.426C138.142 116.642 137.859 116.826 137.507 116.977C137.155 117.129 136.725 117.205 136.217 117.205ZM136.422 116C136.952 116 137.399 115.896 137.763 115.688C138.13 115.479 138.407 115.21 138.592 114.881C138.782 114.551 138.876 114.205 138.876 113.841V112.614C138.82 112.682 138.695 112.744 138.501 112.801C138.312 112.854 138.092 112.902 137.842 112.943C137.596 112.981 137.356 113.015 137.121 113.045C136.89 113.072 136.702 113.095 136.558 113.114C136.21 113.159 135.884 113.233 135.581 113.335C135.282 113.434 135.039 113.583 134.854 113.784C134.672 113.981 134.581 114.25 134.581 114.591C134.581 115.057 134.753 115.409 135.098 115.648C135.446 115.883 135.888 116 136.422 116ZM146.188 120.455C145.54 120.455 144.983 120.371 144.517 120.205C144.051 120.042 143.663 119.826 143.352 119.557C143.045 119.292 142.801 119.008 142.619 118.705L143.688 117.955C143.809 118.114 143.962 118.295 144.148 118.5C144.333 118.708 144.587 118.888 144.909 119.04C145.235 119.195 145.661 119.273 146.188 119.273C146.892 119.273 147.473 119.102 147.932 118.761C148.39 118.42 148.619 117.886 148.619 117.159V115.386H148.506C148.407 115.545 148.267 115.742 148.085 115.977C147.907 116.208 147.65 116.415 147.312 116.597C146.979 116.775 146.528 116.864 145.96 116.864C145.256 116.864 144.623 116.697 144.062 116.364C143.506 116.03 143.064 115.545 142.739 114.909C142.417 114.273 142.256 113.5 142.256 112.591C142.256 111.697 142.413 110.919 142.727 110.256C143.042 109.589 143.479 109.074 144.04 108.71C144.6 108.343 145.248 108.159 145.983 108.159C146.551 108.159 147.002 108.254 147.335 108.443C147.672 108.629 147.93 108.841 148.108 109.08C148.29 109.314 148.43 109.508 148.528 109.659H148.665V108.273H149.96V117.25C149.96 118 149.79 118.61 149.449 119.08C149.112 119.553 148.657 119.9 148.085 120.119C147.517 120.343 146.884 120.455 146.188 120.455ZM146.142 115.659C146.68 115.659 147.134 115.536 147.506 115.29C147.877 115.044 148.159 114.689 148.352 114.227C148.545 113.765 148.642 113.212 148.642 112.568C148.642 111.939 148.547 111.384 148.358 110.903C148.169 110.422 147.888 110.045 147.517 109.773C147.146 109.5 146.688 109.364 146.142 109.364C145.574 109.364 145.1 109.508 144.722 109.795C144.347 110.083 144.064 110.47 143.875 110.955C143.689 111.439 143.597 111.977 143.597 112.568C143.597 113.174 143.691 113.71 143.881 114.176C144.074 114.638 144.358 115.002 144.733 115.267C145.112 115.528 145.581 115.659 146.142 115.659ZM156.074 117.182C155.233 117.182 154.508 116.996 153.898 116.625C153.292 116.25 152.824 115.727 152.494 115.057C152.169 114.383 152.006 113.598 152.006 112.705C152.006 111.811 152.169 111.023 152.494 110.341C152.824 109.655 153.282 109.121 153.869 108.739C154.46 108.352 155.15 108.159 155.938 108.159C156.392 108.159 156.841 108.235 157.284 108.386C157.727 108.538 158.131 108.784 158.494 109.125C158.858 109.462 159.148 109.909 159.364 110.466C159.58 111.023 159.688 111.708 159.688 112.523V113.091H152.96V111.932H158.324C158.324 111.439 158.225 111 158.028 110.614C157.835 110.227 157.559 109.922 157.199 109.699C156.843 109.475 156.422 109.364 155.938 109.364C155.403 109.364 154.941 109.496 154.551 109.761C154.165 110.023 153.867 110.364 153.659 110.784C153.451 111.205 153.347 111.655 153.347 112.136V112.909C153.347 113.568 153.46 114.127 153.688 114.585C153.919 115.04 154.239 115.386 154.648 115.625C155.057 115.86 155.532 115.977 156.074 115.977C156.426 115.977 156.744 115.928 157.028 115.83C157.316 115.727 157.564 115.576 157.773 115.375C157.981 115.17 158.142 114.917 158.256 114.614L159.551 114.977C159.415 115.417 159.186 115.803 158.864 116.136C158.542 116.466 158.144 116.723 157.67 116.909C157.197 117.091 156.665 117.182 156.074 117.182ZM172.773 108.273C172.705 107.697 172.428 107.25 171.943 106.932C171.458 106.614 170.864 106.455 170.159 106.455C169.644 106.455 169.193 106.538 168.807 106.705C168.424 106.871 168.125 107.1 167.909 107.392C167.697 107.684 167.591 108.015 167.591 108.386C167.591 108.697 167.665 108.964 167.812 109.188C167.964 109.407 168.157 109.591 168.392 109.739C168.627 109.883 168.873 110.002 169.131 110.097C169.388 110.187 169.625 110.261 169.841 110.318L171.023 110.636C171.326 110.716 171.663 110.826 172.034 110.966C172.409 111.106 172.767 111.297 173.108 111.54C173.453 111.778 173.737 112.085 173.96 112.46C174.184 112.835 174.295 113.295 174.295 113.841C174.295 114.47 174.131 115.038 173.801 115.545C173.475 116.053 172.998 116.456 172.369 116.756C171.744 117.055 170.985 117.205 170.091 117.205C169.258 117.205 168.536 117.07 167.926 116.801C167.32 116.532 166.843 116.157 166.494 115.676C166.15 115.195 165.955 114.636 165.909 114H167.364C167.402 114.439 167.549 114.803 167.807 115.091C168.068 115.375 168.398 115.587 168.795 115.727C169.197 115.864 169.629 115.932 170.091 115.932C170.629 115.932 171.112 115.845 171.54 115.67C171.968 115.492 172.307 115.246 172.557 114.932C172.807 114.614 172.932 114.242 172.932 113.818C172.932 113.432 172.824 113.117 172.608 112.875C172.392 112.633 172.108 112.436 171.756 112.284C171.403 112.133 171.023 112 170.614 111.886L169.182 111.477C168.273 111.216 167.553 110.843 167.023 110.358C166.492 109.873 166.227 109.239 166.227 108.455C166.227 107.803 166.403 107.235 166.756 106.75C167.112 106.261 167.589 105.883 168.188 105.614C168.79 105.341 169.462 105.205 170.205 105.205C170.955 105.205 171.621 105.339 172.205 105.608C172.788 105.873 173.25 106.237 173.591 106.699C173.936 107.161 174.117 107.686 174.136 108.273H172.773ZM180.089 117.182C179.249 117.182 178.523 116.996 177.913 116.625C177.307 116.25 176.839 115.727 176.51 115.057C176.184 114.383 176.021 113.598 176.021 112.705C176.021 111.811 176.184 111.023 176.51 110.341C176.839 109.655 177.298 109.121 177.885 108.739C178.476 108.352 179.165 108.159 179.953 108.159C180.408 108.159 180.857 108.235 181.3 108.386C181.743 108.538 182.146 108.784 182.51 109.125C182.874 109.462 183.163 109.909 183.379 110.466C183.595 111.023 183.703 111.708 183.703 112.523V113.091H176.976V111.932H182.339C182.339 111.439 182.241 111 182.044 110.614C181.851 110.227 181.574 109.922 181.214 109.699C180.858 109.475 180.438 109.364 179.953 109.364C179.419 109.364 178.957 109.496 178.567 109.761C178.18 110.023 177.883 110.364 177.675 110.784C177.466 111.205 177.362 111.655 177.362 112.136V112.909C177.362 113.568 177.476 114.127 177.703 114.585C177.934 115.04 178.254 115.386 178.663 115.625C179.072 115.86 179.548 115.977 180.089 115.977C180.442 115.977 180.76 115.928 181.044 115.83C181.332 115.727 181.58 115.576 181.788 115.375C181.997 115.17 182.158 114.917 182.271 114.614L183.567 114.977C183.43 115.417 183.201 115.803 182.879 116.136C182.557 116.466 182.16 116.723 181.686 116.909C181.213 117.091 180.68 117.182 180.089 117.182ZM189.538 108.273V109.409H185.016V108.273H189.538ZM186.334 106.182H187.675V114.5C187.675 114.879 187.73 115.163 187.839 115.352C187.953 115.538 188.097 115.663 188.271 115.727C188.449 115.788 188.637 115.818 188.834 115.818C188.982 115.818 189.103 115.811 189.197 115.795C189.292 115.777 189.368 115.761 189.425 115.75L189.697 116.955C189.607 116.989 189.48 117.023 189.317 117.057C189.154 117.095 188.947 117.114 188.697 117.114C188.319 117.114 187.947 117.032 187.584 116.869C187.224 116.706 186.925 116.458 186.686 116.125C186.451 115.792 186.334 115.371 186.334 114.864V106.182ZM195.351 108.273V109.409H190.828V108.273H195.351ZM192.146 106.182H193.487V114.5C193.487 114.879 193.542 115.163 193.652 115.352C193.766 115.538 193.91 115.663 194.084 115.727C194.262 115.788 194.449 115.818 194.646 115.818C194.794 115.818 194.915 115.811 195.01 115.795C195.105 115.777 195.18 115.761 195.237 115.75L195.51 116.955C195.419 116.989 195.292 117.023 195.129 117.057C194.966 117.095 194.76 117.114 194.51 117.114C194.131 117.114 193.76 117.032 193.396 116.869C193.036 116.706 192.737 116.458 192.499 116.125C192.264 115.792 192.146 115.371 192.146 114.864V106.182ZM197.368 117V108.273H198.709V117H197.368ZM198.05 106.818C197.788 106.818 197.563 106.729 197.374 106.551C197.188 106.373 197.095 106.159 197.095 105.909C197.095 105.659 197.188 105.445 197.374 105.267C197.563 105.089 197.788 105 198.05 105C198.311 105 198.535 105.089 198.72 105.267C198.91 105.445 199.004 105.659 199.004 105.909C199.004 106.159 198.91 106.373 198.72 106.551C198.535 106.729 198.311 106.818 198.05 106.818ZM202.506 111.75V117H201.165V108.273H202.46V109.636H202.574C202.778 109.193 203.089 108.837 203.506 108.568C203.922 108.295 204.46 108.159 205.119 108.159C205.71 108.159 206.227 108.28 206.67 108.523C207.114 108.761 207.458 109.125 207.705 109.614C207.951 110.098 208.074 110.712 208.074 111.455V117H206.733V111.545C206.733 110.86 206.555 110.326 206.199 109.943C205.843 109.557 205.354 109.364 204.733 109.364C204.305 109.364 203.922 109.456 203.585 109.642C203.252 109.828 202.989 110.098 202.795 110.455C202.602 110.811 202.506 111.242 202.506 111.75ZM214.047 120.455C213.399 120.455 212.842 120.371 212.376 120.205C211.911 120.042 211.522 119.826 211.212 119.557C210.905 119.292 210.661 119.008 210.479 118.705L211.547 117.955C211.668 118.114 211.821 118.295 212.007 118.5C212.193 118.708 212.446 118.888 212.768 119.04C213.094 119.195 213.52 119.273 214.047 119.273C214.751 119.273 215.333 119.102 215.791 118.761C216.25 118.42 216.479 117.886 216.479 117.159V115.386H216.365C216.267 115.545 216.126 115.742 215.945 115.977C215.767 116.208 215.509 116.415 215.172 116.597C214.839 116.775 214.388 116.864 213.82 116.864C213.115 116.864 212.482 116.697 211.922 116.364C211.365 116.03 210.924 115.545 210.598 114.909C210.276 114.273 210.115 113.5 210.115 112.591C210.115 111.697 210.272 110.919 210.587 110.256C210.901 109.589 211.339 109.074 211.899 108.71C212.46 108.343 213.107 108.159 213.842 108.159C214.411 108.159 214.861 108.254 215.195 108.443C215.532 108.629 215.789 108.841 215.967 109.08C216.149 109.314 216.289 109.508 216.388 109.659H216.524V108.273H217.82V117.25C217.82 118 217.649 118.61 217.308 119.08C216.971 119.553 216.517 119.9 215.945 120.119C215.376 120.343 214.744 120.455 214.047 120.455ZM214.001 115.659C214.539 115.659 214.994 115.536 215.365 115.29C215.736 115.044 216.018 114.689 216.212 114.227C216.405 113.765 216.501 113.212 216.501 112.568C216.501 111.939 216.407 111.384 216.217 110.903C216.028 110.422 215.748 110.045 215.376 109.773C215.005 109.5 214.547 109.364 214.001 109.364C213.433 109.364 212.96 109.508 212.581 109.795C212.206 110.083 211.924 110.47 211.734 110.955C211.549 111.439 211.456 111.977 211.456 112.568C211.456 113.174 211.551 113.71 211.74 114.176C211.933 114.638 212.217 115.002 212.592 115.267C212.971 115.528 213.441 115.659 214.001 115.659ZM226.456 110.227L225.251 110.568C225.176 110.367 225.064 110.172 224.916 109.983C224.772 109.79 224.575 109.631 224.325 109.506C224.075 109.381 223.755 109.318 223.365 109.318C222.831 109.318 222.386 109.441 222.03 109.688C221.678 109.93 221.501 110.239 221.501 110.614C221.501 110.947 221.623 111.21 221.865 111.403C222.107 111.597 222.486 111.758 223.001 111.886L224.297 112.205C225.077 112.394 225.659 112.684 226.041 113.074C226.424 113.46 226.615 113.958 226.615 114.568C226.615 115.068 226.471 115.515 226.183 115.909C225.899 116.303 225.501 116.614 224.99 116.841C224.479 117.068 223.884 117.182 223.206 117.182C222.316 117.182 221.579 116.989 220.996 116.602C220.412 116.216 220.043 115.652 219.888 114.909L221.161 114.591C221.282 115.061 221.511 115.413 221.848 115.648C222.189 115.883 222.634 116 223.183 116C223.808 116 224.304 115.867 224.672 115.602C225.043 115.333 225.229 115.011 225.229 114.636C225.229 114.333 225.123 114.08 224.911 113.875C224.698 113.667 224.373 113.511 223.933 113.409L222.479 113.068C221.679 112.879 221.092 112.585 220.717 112.188C220.346 111.786 220.161 111.284 220.161 110.682C220.161 110.189 220.299 109.754 220.575 109.375C220.856 108.996 221.236 108.699 221.717 108.483C222.202 108.267 222.751 108.159 223.365 108.159C224.229 108.159 224.907 108.348 225.399 108.727C225.895 109.106 226.248 109.606 226.456 110.227Z" fill="#868686"/>
<circle cx="54" cy="112" r="19" fill="#E8F0F5"/>
<path d="M55.751 105C54.783 110.77 51.07 115.61 46 118.129M46 105H58H46ZM52 103V105V103ZM53.048 114.5C51.5081 112.906 50.2755 111.041 49.412 109L53.048 114.5ZM55.5 118H62.5H55.5ZM54 121L59 111L64 121H54Z" stroke="#868686" stroke-width="1.5" stroke-linecap="round" stroke-linejoin="round"/>
<path d="M133.463 43.6378C133.407 43.0649 133.163 42.6198 132.732 42.3026C132.301 41.9853 131.716 41.8267 130.978 41.8267C130.476 41.8267 130.052 41.8977 129.706 42.0398C129.361 42.1771 129.096 42.3688 128.911 42.6151C128.731 42.8613 128.641 43.1406 128.641 43.4531C128.632 43.7135 128.686 43.9408 128.804 44.1349C128.927 44.3291 129.096 44.4972 129.309 44.6392C129.522 44.7765 129.768 44.8973 130.047 45.0014C130.327 45.1009 130.625 45.1861 130.942 45.2571L132.249 45.5696C132.883 45.7116 133.466 45.901 133.996 46.1378C134.526 46.3745 134.986 46.6657 135.374 47.0114C135.762 47.357 136.063 47.7642 136.276 48.233C136.494 48.7017 136.605 49.2391 136.61 49.8452C136.605 50.7353 136.378 51.5071 135.928 52.1605C135.483 52.8092 134.839 53.3134 133.996 53.6733C133.158 54.0284 132.147 54.206 130.963 54.206C129.789 54.206 128.766 54.026 127.895 53.6662C127.029 53.3063 126.352 52.7737 125.864 52.0682C125.381 51.358 125.128 50.4796 125.104 49.4332H128.08C128.113 49.9209 128.253 50.3281 128.499 50.6548C128.75 50.9768 129.084 51.2206 129.5 51.3864C129.922 51.5473 130.398 51.6278 130.928 51.6278C131.449 51.6278 131.901 51.5521 132.284 51.4006C132.673 51.2491 132.973 51.0384 133.186 50.7685C133.4 50.4986 133.506 50.1884 133.506 49.8381C133.506 49.5114 133.409 49.2367 133.215 49.0142C133.025 48.7917 132.746 48.6023 132.377 48.446C132.012 48.2898 131.565 48.1477 131.034 48.0199L129.451 47.6222C128.224 47.3239 127.256 46.8575 126.546 46.223C125.836 45.5885 125.483 44.7339 125.488 43.6591C125.483 42.7784 125.717 42.009 126.191 41.3509C126.669 40.6927 127.325 40.179 128.158 39.8097C128.991 39.4403 129.938 39.2557 130.999 39.2557C132.078 39.2557 133.021 39.4403 133.826 39.8097C134.635 40.179 135.265 40.6927 135.715 41.3509C136.165 42.009 136.397 42.7713 136.411 43.6378H133.463ZM143.593 54.2131C142.471 54.2131 141.505 53.9858 140.695 53.5312C139.89 53.072 139.27 52.4233 138.835 51.5852C138.399 50.7424 138.181 49.7457 138.181 48.5952C138.181 47.473 138.399 46.4882 138.835 45.6406C139.27 44.7931 139.883 44.1326 140.674 43.6591C141.469 43.1856 142.402 42.9489 143.472 42.9489C144.192 42.9489 144.862 43.0649 145.482 43.2969C146.107 43.5241 146.652 43.8674 147.116 44.3267C147.585 44.786 147.949 45.3636 148.21 46.0597C148.47 46.7509 148.6 47.5606 148.6 48.4886V49.3196H139.388V47.4446H145.752C145.752 47.009 145.657 46.6231 145.468 46.2869C145.279 45.9508 145.016 45.688 144.68 45.4986C144.348 45.3045 143.962 45.2074 143.522 45.2074C143.063 45.2074 142.656 45.3139 142.3 45.527C141.95 45.7353 141.675 46.017 141.477 46.3722C141.278 46.7225 141.176 47.1132 141.171 47.544V49.3267C141.171 49.8665 141.271 50.3329 141.469 50.7259C141.673 51.1188 141.96 51.4219 142.329 51.6349C142.698 51.848 143.136 51.9545 143.643 51.9545C143.979 51.9545 144.287 51.9072 144.566 51.8125C144.845 51.7178 145.085 51.5758 145.283 51.3864C145.482 51.197 145.634 50.965 145.738 50.6903L148.536 50.875C148.394 51.5473 148.103 52.1345 147.663 52.6364C147.227 53.1335 146.664 53.5218 145.972 53.8011C145.286 54.0758 144.493 54.2131 143.593 54.2131ZM156.377 43.0909V45.3636H149.808V43.0909H156.377ZM151.299 40.4773H154.325V50.6477C154.325 50.9271 154.367 51.1449 154.452 51.3011C154.538 51.4527 154.656 51.5592 154.808 51.6207C154.964 51.6823 155.144 51.7131 155.347 51.7131C155.489 51.7131 155.631 51.7012 155.773 51.6776C155.915 51.6491 156.024 51.6278 156.1 51.6136L156.576 53.8651C156.424 53.9124 156.211 53.9669 155.937 54.0284C155.662 54.0947 155.328 54.1349 154.935 54.1491C154.206 54.1776 153.567 54.0805 153.018 53.858C152.473 53.6354 152.049 53.2898 151.746 52.821C151.443 52.3523 151.294 51.7604 151.299 51.0455V40.4773ZM164.151 43.0909V45.3636H157.581V43.0909H164.151ZM159.072 40.4773H162.098V50.6477C162.098 50.9271 162.141 51.1449 162.226 51.3011C162.311 51.4527 162.429 51.5592 162.581 51.6207C162.737 51.6823 162.917 51.7131 163.121 51.7131C163.263 51.7131 163.405 51.7012 163.547 51.6776C163.689 51.6491 163.798 51.6278 163.874 51.6136L164.349 53.8651C164.198 53.9124 163.985 53.9669 163.71 54.0284C163.436 54.0947 163.102 54.1349 162.709 54.1491C161.98 54.1776 161.34 54.0805 160.791 53.858C160.247 53.6354 159.823 53.2898 159.52 52.821C159.217 52.3523 159.068 51.7604 159.072 51.0455V40.4773ZM166.121 54V43.0909H169.147V54H166.121ZM167.641 41.6847C167.192 41.6847 166.806 41.5355 166.484 41.2372C166.166 40.9342 166.008 40.572 166.008 40.1506C166.008 39.7339 166.166 39.3764 166.484 39.0781C166.806 38.7751 167.192 38.6236 167.641 38.6236C168.091 38.6236 168.475 38.7751 168.792 39.0781C169.114 39.3764 169.275 39.7339 169.275 40.1506C169.275 40.572 169.114 40.9342 168.792 41.2372C168.475 41.5355 168.091 41.6847 167.641 41.6847ZM174.596 47.6932V54H171.571V43.0909H174.454V45.0156H174.582C174.824 44.3812 175.228 43.8793 175.797 43.5099C176.365 43.1359 177.054 42.9489 177.863 42.9489C178.621 42.9489 179.281 43.1146 179.845 43.446C180.408 43.7775 180.846 44.2509 181.159 44.8665C181.471 45.4773 181.627 46.2064 181.627 47.054V54H178.602V47.5938C178.607 46.9261 178.436 46.4053 178.091 46.0312C177.745 45.6525 177.269 45.4631 176.663 45.4631C176.256 45.4631 175.896 45.5507 175.583 45.7259C175.276 45.901 175.034 46.1567 174.859 46.4929C174.689 46.8243 174.601 47.2244 174.596 47.6932ZM188.927 58.3182C187.947 58.3182 187.106 58.1832 186.406 57.9134C185.71 57.6482 185.156 57.286 184.744 56.8267C184.332 56.3674 184.064 55.8513 183.941 55.2784L186.739 54.902C186.825 55.1198 186.96 55.3234 187.144 55.5128C187.329 55.7022 187.573 55.8537 187.876 55.9673C188.183 56.0857 188.558 56.1449 188.998 56.1449C189.656 56.1449 190.198 55.9839 190.624 55.6619C191.055 55.3447 191.271 54.812 191.271 54.0639V52.0682H191.143C191.01 52.3712 190.811 52.6577 190.546 52.9276C190.281 53.1974 189.94 53.4176 189.523 53.5881C189.107 53.7585 188.61 53.8438 188.032 53.8438C187.213 53.8438 186.467 53.6544 185.795 53.2756C185.127 52.892 184.594 52.3073 184.197 51.5213C183.804 50.7306 183.607 49.7315 183.607 48.5241C183.607 47.2884 183.808 46.2562 184.211 45.4276C184.613 44.599 185.148 43.9787 185.816 43.5668C186.488 43.1548 187.225 42.9489 188.025 42.9489C188.636 42.9489 189.147 43.053 189.559 43.2614C189.971 43.465 190.302 43.7206 190.553 44.0284C190.809 44.3314 191.005 44.6297 191.143 44.9233H191.256V43.0909H194.261V54.1065C194.261 55.0346 194.033 55.8111 193.579 56.4361C193.124 57.0611 192.495 57.5298 191.69 57.8423C190.889 58.1596 189.969 58.3182 188.927 58.3182ZM188.991 51.571C189.478 51.571 189.89 51.4503 190.227 51.2088C190.567 50.9626 190.828 50.6122 191.008 50.1577C191.192 49.6984 191.285 49.1491 191.285 48.5099C191.285 47.8707 191.195 47.3168 191.015 46.848C190.835 46.3745 190.575 46.0076 190.234 45.7472C189.893 45.4867 189.478 45.3565 188.991 45.3565C188.494 45.3565 188.075 45.4915 187.734 45.7614C187.393 46.0265 187.135 46.3958 186.96 46.8693C186.784 47.3428 186.697 47.8897 186.697 48.5099C186.697 49.1397 186.784 49.6842 186.96 50.1435C187.139 50.598 187.397 50.9508 187.734 51.2017C188.075 51.4479 188.494 51.571 188.991 51.571ZM205.745 46.2017L202.975 46.3722C202.928 46.1354 202.826 45.9223 202.67 45.733C202.513 45.5388 202.308 45.3849 202.052 45.2713C201.801 45.1529 201.5 45.0938 201.15 45.0938C200.681 45.0938 200.286 45.1932 199.964 45.392C199.642 45.5862 199.481 45.8466 199.481 46.1733C199.481 46.4337 199.585 46.6539 199.793 46.8338C200.002 47.0137 200.359 47.1581 200.866 47.267L202.84 47.6648C203.901 47.8826 204.692 48.233 205.212 48.7159C205.733 49.1989 205.994 49.8333 205.994 50.6193C205.994 51.3343 205.783 51.9616 205.362 52.5014C204.945 53.0412 204.372 53.4626 203.643 53.7656C202.918 54.0639 202.083 54.2131 201.136 54.2131C199.692 54.2131 198.541 53.9124 197.684 53.3111C196.832 52.705 196.332 51.8812 196.185 50.8395L199.161 50.6832C199.251 51.1236 199.469 51.4598 199.815 51.6918C200.16 51.919 200.603 52.0327 201.143 52.0327C201.673 52.0327 202.099 51.9309 202.421 51.7273C202.748 51.5189 202.914 51.2514 202.918 50.9247C202.914 50.6501 202.798 50.4252 202.57 50.25C202.343 50.0701 201.993 49.9328 201.519 49.8381L199.63 49.4616C198.565 49.2486 197.772 48.8793 197.251 48.3537C196.735 47.8281 196.477 47.1581 196.477 46.3438C196.477 45.643 196.666 45.0393 197.045 44.5327C197.428 44.026 197.966 43.6354 198.657 43.3608C199.353 43.0862 200.167 42.9489 201.1 42.9489C202.478 42.9489 203.562 43.2401 204.353 43.8224C205.148 44.4048 205.612 45.1979 205.745 46.2017Z" fill="#393939"/>
</svg>
